<svg xmlns="http://www.w3.org/2000/svg" width="205" height="94" viewBox="0 550 3508 2480" version="1.1"><path d="M 1024.287 647.801 C 1023.620 648.225, 1021.208 654.181, 1018.927 661.036 C 1009.486 689.413, 996.079 710.859, 974.833 731.574 C 961.371 744.699, 957.268 748.084, 927.527 770.596 C 886.339 801.774, 883.944 804.559, 866.781 841.248 C 857.406 861.289, 854.878 867.420, 849.482 883.201 C 845.406 895.123, 836.395 932.792, 835.177 943 C 833.962 953.179, 835.138 962.263, 838.144 965.936 C 839.440 967.519, 843.568 972.568, 847.319 977.157 C 857.817 990.003, 868.926 1000.916, 878.130 1007.425 C 882.733 1010.681, 890.325 1016.051, 895 1019.358 C 908.103 1028.628, 922.749 1040.927, 930.828 1049.444 C 943.310 1062.604, 955.138 1083.001, 958.461 1097.095 C 960.387 1105.266, 960.399 1120.681, 958.487 1128.794 C 956.744 1136.184, 953.394 1143.261, 952.708 1141 C 945.105 1115.927, 932.569 1090.480, 918.344 1071.246 C 907.121 1056.070, 896.359 1047.465, 883.003 1042.990 C 876.903 1040.946, 875.314 1040.851, 857.003 1041.443 C 837.750 1042.065, 837.410 1042.040, 830.500 1039.489 C 813.603 1033.252, 811.732 1032.798, 807.760 1033.970 C 803.697 1035.170, 802.270 1037.956, 803.405 1042.478 C 804.326 1046.145, 815.120 1057.200, 822.262 1061.789 C 825.693 1063.994, 831.538 1066.804, 835.250 1068.034 C 840.280 1069.700, 842 1070.732, 842 1072.083 C 842 1073.081, 843.121 1077.447, 844.492 1081.786 C 847.572 1091.535, 856.374 1105.796, 865.372 1115.612 C 878.104 1129.504, 891.489 1136.418, 923.260 1145.515 C 933.578 1148.469, 944.279 1152.116, 947.041 1153.619 L 952.061 1156.351 954.980 1152.926 C 968.781 1136.728, 972.647 1108.843, 964.311 1085.633 C 961.222 1077.034, 952.719 1061.861, 945.845 1052.683 C 935.746 1039.197, 915.097 1021.178, 891.499 1005.259 C 884.898 1000.806, 876.798 994.807, 873.499 991.928 C 862.386 982.230, 850.383 967.266, 847.820 959.913 C 846.647 956.548, 847.507 942.119, 848.970 940.640 C 851.334 938.249, 893.991 972.935, 913.243 992.903 C 936.721 1017.255, 953.073 1038.076, 961.618 1054.500 C 972.962 1076.305, 979.214 1107.979, 976.047 1127.610 C 972.970 1146.680, 962.750 1171.104, 947.846 1195 C 931.148 1221.775, 907.785 1257.388, 896.456 1273.338 C 875.865 1302.327, 870.023 1313.555, 865.930 1332 C 861.317 1352.784, 865.891 1372.152, 879.183 1388.124 C 884.153 1394.096, 896.525 1403.592, 900.702 1404.640 C 901.966 1404.957, 903 1405.466, 903 1405.771 C 903 1406.075, 900.768 1411.356, 898.040 1417.506 C 891.203 1432.917, 888.704 1442.473, 889.158 1451.467 L 889.520 1458.635 882.010 1456.221 C 871.822 1452.946, 859.079 1453.394, 851.393 1457.296 C 844.437 1460.827, 840.469 1464.347, 837.230 1469.855 C 834.891 1473.835, 834.508 1475.573, 834.556 1482 C 834.594 1487.130, 835.165 1490.547, 836.364 1492.813 C 838.019 1495.943, 838.023 1496.373, 836.424 1500.560 C 830.069 1517.199, 847.599 1549.184, 869.283 1560.515 C 872.425 1562.157, 874.984 1563.725, 874.971 1564 C 874.958 1564.275, 869.711 1566.968, 863.311 1569.985 C 856.911 1573.001, 848.936 1577.243, 845.588 1579.411 C 837.662 1584.543, 828.096 1594.143, 824.328 1600.746 L 821.334 1605.992 818.589 1599.840 C 814.682 1591.083, 811.080 1580.833, 808.454 1571 C 804.387 1555.767, 792.203 1492.911, 790.041 1476 C 788.880 1466.925, 787.070 1454.550, 786.018 1448.500 C 784.966 1442.450, 783.373 1432.100, 782.477 1425.500 C 780.752 1412.795, 775.078 1378.937, 774.522 1378.034 C 774.341 1377.740, 773.459 1371.650, 772.560 1364.500 C 771.662 1357.350, 769.151 1339.979, 766.980 1325.898 C 762.664 1297.901, 759.925 1268.026, 759.746 1247 C 759.579 1227.237, 763.283 1202.389, 770.107 1177.500 C 775.032 1159.537, 786.560 1124.626, 790.580 1115.500 C 791.307 1113.850, 792.780 1110.250, 793.853 1107.500 C 794.927 1104.750, 797.424 1098.485, 799.403 1093.578 C 803.127 1084.340, 803.664 1082, 802.059 1082 C 800.855 1082, 800.022 1083.341, 797.398 1089.500 C 796.227 1092.250, 792.306 1101.025, 788.686 1109 C 777.751 1133.086, 765.232 1166.958, 759.112 1189.016 C 756.389 1198.831, 751.502 1224.162, 749.945 1236.534 C 747.800 1253.568, 749.891 1289.691, 755.384 1330.500 C 757.308 1344.800, 759.398 1361, 760.027 1366.500 C 760.657 1372, 761.984 1380.550, 762.978 1385.500 C 763.972 1390.450, 765.993 1402.375, 767.469 1412 C 768.945 1421.625, 771.052 1434.900, 772.150 1441.500 C 773.249 1448.100, 774.788 1457.775, 775.571 1463 C 779.834 1491.466, 781.463 1500.921, 784.527 1515 C 786.383 1523.525, 789.308 1538.150, 791.029 1547.500 C 797.083 1580.404, 802.981 1598.334, 813.789 1616.695 C 818.972 1625.500, 820.965 1630.028, 826.595 1645.794 C 833.364 1664.750, 840.699 1676.414, 854.250 1689.771 C 863.755 1699.140, 868.455 1702.817, 879.264 1709.347 C 892.969 1717.626, 902.265 1721.267, 923 1726.472 C 940.570 1730.883, 948.874 1731.995, 969.540 1732.704 C 987.045 1733.305, 1009.324 1731.694, 1029.500 1728.369 C 1041.927 1726.321, 1069.175 1720.333, 1076.855 1717.962 C 1080.351 1716.883, 1083.549 1716, 1083.962 1716 C 1084.375 1716, 1085.001 1719.037, 1085.354 1722.750 C 1087.758 1748.078, 1099.852 1791.718, 1112.085 1819.204 C 1118.095 1832.709, 1119.825 1835.575, 1121.160 1834.240 C 1121.791 1833.609, 1119.981 1826.981, 1116.010 1815.383 C 1104.298 1781.181, 1098.662 1758.930, 1094.507 1730.500 C 1093.221 1721.700, 1092.243 1714.441, 1092.334 1714.369 C 1092.425 1714.297, 1100.366 1711.888, 1109.980 1709.016 C 1141.299 1699.659, 1172.261 1688.229, 1203.500 1674.492 C 1218.768 1667.778, 1253.378 1650.902, 1263.750 1645.114 L 1271 1641.068 1271 1644.399 C 1271 1650.860, 1277.446 1656, 1285.549 1656 C 1294.254 1656, 1300 1651.626, 1300 1645 C 1300 1640.537, 1297.928 1637.545, 1292.420 1634.052 L 1288.100 1631.312 1292.300 1628.911 C 1302.041 1623.344, 1312.728 1616.529, 1329 1605.507 C 1347.387 1593.054, 1348.060 1592.578, 1360 1583.575 C 1368.693 1577.021, 1384.360 1564.207, 1402.603 1548.732 L 1405.866 1545.965 1407.619 1548.932 C 1411.267 1555.107, 1419.534 1559.015, 1428.876 1558.978 C 1441.476 1558.929, 1453 1549.739, 1453 1539.740 C 1453 1535.703, 1451.494 1534, 1447.922 1534 C 1444.473 1534, 1443.407 1535.432, 1442.575 1541.180 C 1440.375 1556.393, 1422.101 1558.770, 1415.143 1544.748 C 1413.847 1542.135, 1413.045 1539.326, 1413.360 1538.505 C 1414.382 1535.840, 1420.221 1533.114, 1429.458 1530.988 C 1443.690 1527.712, 1447.702 1526.142, 1450.578 1522.725 C 1452.827 1520.052, 1453.148 1518.891, 1452.758 1514.838 C 1452.459 1511.723, 1451.364 1508.854, 1449.580 1506.516 L 1446.858 1502.948 1451.727 1496.724 C 1472.357 1470.349, 1484.123 1449.214, 1493.603 1421.500 C 1498.627 1406.812, 1497.821 1388.128, 1491.836 1380.518 C 1488.691 1376.520, 1479.241 1369.901, 1473.570 1367.726 C 1470.782 1366.656, 1464.768 1365.540, 1460.207 1365.247 C 1451.807 1364.706, 1430.415 1366.314, 1424 1367.968 C 1422.075 1368.465, 1413.975 1369.829, 1406 1371.001 C 1398.025 1372.172, 1387.225 1373.965, 1382 1374.985 C 1376.775 1376.004, 1371.825 1376.823, 1371 1376.805 C 1365.587 1376.687, 1325.752 1387.486, 1306.500 1394.290 C 1232.082 1420.592, 1173.193 1463.005, 1133.345 1519 C 1115.852 1543.581, 1100.680 1575.730, 1093.079 1604.323 C 1085.468 1632.955, 1082.658 1656.342, 1083.173 1686.763 C 1083.452 1703.213, 1083.281 1706.092, 1082 1706.471 C 1078.160 1707.610, 1050.249 1712.384, 1029.061 1715.525 C 987.693 1721.658, 962.223 1720.293, 919.393 1709.647 C 903.035 1705.580, 888.804 1700.489, 877.553 1694.677 C 863.965 1687.658, 848.059 1669.957, 838.754 1651.500 C 834.529 1643.120, 831.003 1630.347, 830.342 1621.031 C 829.752 1612.719, 829.863 1612.023, 832.578 1607.034 C 837.583 1597.838, 847.121 1590.126, 863.273 1582.214 C 871.098 1578.381, 880.287 1574.245, 883.694 1573.022 L 889.887 1570.798 897.694 1573.364 C 901.987 1574.776, 913.573 1577.296, 923.439 1578.965 C 945.822 1582.752, 960.669 1582.997, 979 1579.883 C 993.913 1577.350, 1001.105 1574.847, 1005.779 1570.563 C 1008.797 1567.798, 1009.155 1566.981, 1008.552 1564.236 C 1007.595 1559.878, 1002.222 1555.497, 995.405 1553.515 C 968.843 1545.794, 928.495 1548.175, 892.703 1559.576 L 884.906 1562.060 877.777 1558.314 C 869.064 1553.735, 854.453 1540.164, 849.602 1532.144 C 845.504 1525.369, 841.931 1514.981, 841.831 1509.552 C 841.775 1506.511, 842.342 1505.103, 844.298 1503.420 L 846.838 1501.235 860.604 1503.643 C 875.129 1506.183, 884.996 1508.612, 917.500 1517.652 C 950.665 1526.875, 960.876 1530.091, 975 1535.757 C 982.425 1538.736, 995.863 1543.810, 1004.862 1547.033 C 1013.862 1550.256, 1021.962 1553.557, 1022.862 1554.369 C 1025.928 1557.130, 1029.613 1557.390, 1031.312 1554.965 C 1034.071 1551.026, 1031.799 1548.031, 1018.474 1538.043 C 1005.515 1528.330, 986.847 1510.861, 976.026 1498.321 C 961.179 1481.118, 951.598 1472.641, 942.010 1468.225 C 937.196 1466.007, 934.606 1465.603, 921.500 1465.021 C 913.250 1464.655, 905.375 1463.877, 904 1463.292 C 894.573 1459.285, 894.672 1447.026, 904.330 1422.221 C 908.961 1410.326, 909.709 1409.013, 911.500 1409.628 C 912.600 1410.006, 919.350 1410.496, 926.500 1410.718 C 942.921 1411.228, 943.970 1410.715, 942.199 1403.042 C 939.856 1392.890, 940.419 1392, 949.181 1392 C 955.851 1392, 959.876 1394.034, 969.859 1402.452 C 980.662 1411.560, 983.665 1413.523, 989.943 1415.576 C 1001.832 1419.465, 1016.007 1414.400, 1023.500 1403.587 C 1027.260 1398.161, 1027.521 1397.315, 1027.849 1389.502 C 1028.440 1375.416, 1024.019 1365.379, 1014.680 1359.606 C 1010.425 1356.975, 1008.507 1356.542, 996.370 1355.471 C 983.377 1354.325, 982.689 1354.151, 979.834 1351.296 C 977.073 1348.534, 976.751 1347.424, 975.434 1336.122 C 973.924 1323.152, 972.855 1320.092, 968.339 1315.804 C 962.857 1310.597, 956.557 1308.600, 945.500 1308.561 C 934.455 1308.522, 926.632 1310.553, 915.674 1316.303 C 902.774 1323.071, 900.177 1329.730, 901.947 1351.500 C 904.639 1384.613, 904.921 1389.848, 904.230 1393.817 L 903.500 1398.005 897.823 1393.545 C 891.613 1388.667, 886.940 1381.598, 882.083 1369.736 C 877.616 1358.824, 876.786 1354.563, 876.685 1342 C 876.604 1331.888, 876.926 1329.535, 879.359 1322.500 C 883.735 1309.846, 893.363 1293.669, 909.413 1272 C 925.214 1250.667, 958.653 1197.584, 967.997 1179 C 976.940 1161.212, 983.347 1142.031, 985.065 1127.903 C 987.549 1107.477, 980.717 1072.936, 970.152 1052.500 C 961.761 1036.271, 940.881 1009.990, 918.500 987.489 C 899.779 968.668, 864.113 940.603, 853.136 936.056 C 849.053 934.365, 849.082 933.611, 854.034 913.160 C 861.194 883.591, 867.950 865.130, 881.539 838 C 895.357 810.413, 896.396 809.321, 943.423 772.921 C 976.775 747.106, 998.640 724.331, 1008.391 705.250 C 1010.229 701.653, 1011.013 701.077, 1010.433 703.750 C 1000.287 750.521, 999.924 839.101, 1009.649 894.959 C 1014.629 923.562, 1025.283 954.112, 1038.672 978.183 C 1047.113 993.357, 1063.800 1017.353, 1073.461 1028.210 C 1083.901 1039.942, 1095.744 1050.734, 1109.243 1060.817 C 1114.051 1064.409, 1117.876 1067.449, 1117.743 1067.572 C 1117.609 1067.695, 1113 1066.869, 1107.500 1065.736 C 1094.128 1062.983, 1065.522 1062.820, 1053.500 1065.428 C 1044.006 1067.487, 1030.931 1073.366, 1025.773 1077.894 C 1010.753 1091.082, 1013.814 1121.846, 1032.298 1143.474 C 1042.717 1155.664, 1059.915 1169.868, 1078.707 1181.803 C 1097.541 1193.766, 1121.563 1203.559, 1138.544 1206.199 C 1142.645 1206.837, 1146 1207.673, 1146 1208.057 C 1146 1208.441, 1145.254 1209.373, 1144.342 1210.128 C 1140.293 1213.480, 1125.510 1231.652, 1116.786 1244 C 1103.663 1262.574, 1100.659 1268.792, 1094.322 1290.500 C 1091.465 1300.288, 1090.719 1304.765, 1090.273 1314.790 C 1089.040 1342.533, 1094.651 1362.018, 1105.934 1369.173 C 1114.831 1374.816, 1123.113 1374.930, 1134.448 1369.568 C 1137.297 1368.220, 1141.942 1366.205, 1144.772 1365.090 C 1151.182 1362.563, 1166.038 1355.137, 1176.215 1349.371 C 1180.459 1346.967, 1184.407 1345, 1184.990 1345 C 1186.567 1345, 1198.233 1337.539, 1209 1329.645 C 1228.558 1315.304, 1240.966 1301.136, 1250.165 1282.638 C 1254.974 1272.969, 1257 1270.134, 1257 1273.074 C 1257 1276.586, 1275.507 1309.797, 1282.871 1319.500 C 1294.962 1335.430, 1316.202 1352.565, 1330.483 1357.908 C 1345.444 1363.505, 1381.390 1366.224, 1394.520 1362.752 C 1401.718 1360.848, 1415.013 1354.921, 1416.711 1352.860 C 1418.938 1350.155, 1420.281 1337.067, 1419.569 1325 C 1418.503 1306.934, 1413.740 1287.781, 1405.581 1268.750 C 1404.697 1266.688, 1404.212 1265, 1404.503 1265 C 1404.795 1265, 1403.901 1262.765, 1402.517 1260.033 C 1401.133 1257.302, 1400 1254.939, 1400 1254.783 C 1400 1254.627, 1409.337 1254.500, 1420.750 1254.500 C 1465.675 1254.500, 1508.842 1251.028, 1539.505 1244.947 C 1545.007 1243.856, 1558.622 1241.900, 1569.759 1240.601 C 1580.920 1239.299, 1590.679 1237.681, 1591.504 1236.997 C 1593.523 1235.321, 1593.394 1231.655, 1591.250 1229.778 C 1590.287 1228.935, 1585.239 1226.125, 1580.031 1223.534 C 1568.236 1217.664, 1564.554 1214.732, 1544.911 1195.567 C 1521.128 1172.364, 1502.547 1156.947, 1486.784 1147.340 C 1474.597 1139.912, 1448.826 1127.443, 1442.500 1125.914 C 1439.750 1125.249, 1437.376 1124.610, 1437.225 1124.494 C 1437.073 1124.377, 1438.440 1121.631, 1440.263 1118.391 C 1446.070 1108.068, 1454.044 1087.501, 1456.471 1076.592 C 1456.826 1074.993, 1457.126 1069.463, 1457.137 1064.305 L 1457.156 1054.925 1461.328 1052.248 C 1478.705 1041.096, 1483.972 1032.087, 1495.383 994 C 1497.738 986.141, 1501.170 977.689, 1504.627 971.235 C 1510.255 960.727, 1510.725 957.951, 1507.182 956.136 C 1506.029 955.545, 1502.201 956.528, 1495 959.265 C 1482.179 964.139, 1469.651 967.814, 1448 973.053 C 1430.934 977.182, 1415.022 983.745, 1408.238 989.453 C 1406.573 990.854, 1404.939 992, 1404.606 992 C 1404.273 992, 1403.985 984.462, 1403.966 975.250 C 1403.890 937.371, 1400.743 879.705, 1398.421 873.654 C 1397.712 871.807, 1393.718 870.438, 1392.049 871.470 C 1391.463 871.832, 1388.566 875.362, 1385.610 879.314 C 1382.653 883.266, 1378.044 888.581, 1375.367 891.125 C 1366.827 899.241, 1343.937 918.031, 1330.088 928.295 C 1314.420 939.907, 1302.945 951.005, 1293.881 963.311 C 1287.459 972.030, 1285.774 974.952, 1280.576 986.369 C 1279.107 989.597, 1277.741 992.072, 1277.541 991.869 C 1277.341 991.666, 1274.512 987.450, 1271.255 982.500 C 1258.689 963.404, 1245.219 949.821, 1232 942.915 C 1225.805 939.679, 1216.346 939.686, 1209.641 942.932 C 1181.894 956.364, 1160.652 1024.832, 1168.961 1074.052 C 1170.034 1080.406, 1171.204 1086.369, 1171.563 1087.302 C 1172.504 1089.755, 1170.711 1089.388, 1167.580 1086.487 C 1166.089 1085.104, 1162.985 1083.015, 1160.684 1081.843 C 1139.550 1071.081, 1098.557 1039.515, 1083.216 1022.191 C 1045.697 979.818, 1021.811 926.439, 1016.011 872 C 1015.396 866.225, 1014.480 858.125, 1013.976 854 C 1011.835 836.471, 1010.786 794.755, 1011.903 771.500 C 1014.059 726.572, 1018.892 690.766, 1026.050 666.670 C 1029.189 656.103, 1029.753 650.153, 1027.800 648.200 C 1026.406 646.806, 1025.937 646.753, 1024.287 647.801 M 1382.051 896.900 C 1372.810 906.087, 1356.798 919.147, 1338.358 932.538 C 1314.482 949.877, 1304.304 960.100, 1291.809 979.294 C 1289.228 983.257, 1286.648 987.036, 1286.074 987.691 C 1285.501 988.346, 1284.050 990.902, 1282.850 993.371 L 1280.669 997.861 1284.807 1008.249 C 1289.769 1020.706, 1291.697 1028.630, 1293.500 1043.968 C 1295.721 1062.859, 1296.221 1066, 1297.003 1066 C 1297.659 1066, 1299.390 1060.923, 1302.800 1049 C 1306.388 1036.457, 1322.188 998.962, 1328.295 988.500 C 1332.482 981.328, 1348.947 957.723, 1355.499 949.500 C 1364.386 938.346, 1376.072 925.926, 1377.088 926.554 C 1377.601 926.872, 1375.381 930.364, 1372.154 934.316 C 1368.927 938.267, 1360.525 950.050, 1353.483 960.500 C 1340.336 980.008, 1334.496 991.097, 1319.824 1024.409 C 1316.514 1031.923, 1304 1064.527, 1304 1065.636 C 1304 1065.832, 1308.162 1062.813, 1313.250 1058.926 C 1323.354 1051.208, 1339.181 1042.920, 1348.294 1040.577 C 1351.481 1039.757, 1358.979 1038.336, 1364.956 1037.418 L 1375.824 1035.749 1376.412 1032.625 C 1377.710 1025.723, 1384.499 1013.712, 1391.220 1006.422 C 1395.689 1001.576, 1396.104 993.931, 1394.469 946.500 C 1393.023 904.561, 1392.244 891.264, 1391.131 889.500 C 1390.784 888.950, 1386.698 892.280, 1382.051 896.900 M 1215.994 947.903 C 1208.324 950.332, 1202.964 955.304, 1195.581 966.839 C 1187.289 979.795, 1181.850 995.504, 1176.829 1021 C 1173.307 1038.879, 1173.633 1060.632, 1177.715 1080.266 L 1180.785 1095.032 1190.237 1104.879 C 1198.254 1113.231, 1200.575 1116.457, 1205.523 1126.114 C 1208.732 1132.376, 1212.326 1140.544, 1213.510 1144.265 C 1215.606 1150.852, 1215.709 1150.978, 1217.433 1149.074 C 1218.860 1147.498, 1219.071 1146.154, 1218.522 1142.163 C 1217.374 1133.810, 1222.251 1127.923, 1227.841 1130.915 C 1228.956 1131.512, 1230.114 1132, 1230.414 1132 C 1231.395 1132, 1235 1124.131, 1235 1121.990 C 1235 1118.533, 1237.875 1114.070, 1240.531 1113.403 C 1243.757 1112.593, 1245.700 1114.266, 1247.148 1119.099 C 1248.190 1122.578, 1248.563 1122.899, 1250.903 1122.329 C 1252.331 1121.981, 1254.772 1120.639, 1256.327 1119.348 C 1257.881 1118.057, 1260.174 1117, 1261.422 1117 C 1264.294 1117, 1266.995 1119.935, 1267.015 1123.079 C 1267.041 1127.136, 1268.280 1128.041, 1273.568 1127.871 C 1277.843 1127.733, 1278.876 1127.265, 1281.323 1124.356 C 1284.667 1120.380, 1288.176 1119.981, 1291.050 1123.250 C 1292.138 1124.487, 1294.590 1127.196, 1296.500 1129.269 C 1300.904 1134.050, 1301.598 1136.904, 1299.734 1142.567 C 1298.430 1146.527, 1298.425 1147.282, 1299.692 1148.549 C 1300.490 1149.347, 1301.521 1150, 1301.982 1150 C 1303.420 1150, 1307 1158.466, 1307 1161.865 C 1307 1163.644, 1306.270 1166.512, 1305.377 1168.238 C 1304.126 1170.657, 1304.011 1171.789, 1304.877 1173.175 C 1305.495 1174.164, 1306 1176.492, 1306 1178.350 L 1306 1181.726 1312.250 1182.263 C 1315.688 1182.558, 1322.312 1184.020, 1326.970 1185.513 C 1335.348 1188.197, 1335.499 1188.208, 1340.778 1186.544 C 1350.764 1183.396, 1378.346 1169.281, 1388 1162.378 C 1400.187 1153.664, 1422.103 1131.812, 1428.476 1122.021 C 1440.717 1103.216, 1448.028 1080.994, 1447.985 1062.731 C 1447.964 1053.946, 1446.673 1051.939, 1439.665 1049.806 C 1430.929 1047.146, 1417.851 1045.106, 1405 1044.398 C 1391.584 1043.658, 1365.092 1045.973, 1352.279 1049.004 C 1337.107 1052.593, 1322.835 1061.290, 1306.216 1077.074 C 1297.243 1085.596, 1297.184 1085.683, 1296.497 1091.574 C 1294.570 1108.091, 1288.296 1120, 1281.520 1120 C 1273.221 1120, 1274.796 1105.134, 1284.606 1090.865 L 1289.168 1084.230 1288.548 1074.865 C 1287.955 1065.901, 1286.653 1054.307, 1283.580 1030.607 C 1282.322 1020.906, 1281.573 1018.498, 1276.740 1008.607 C 1267.227 989.134, 1255.309 972.134, 1243.647 961.398 C 1231.495 950.212, 1222.525 945.835, 1215.994 947.903 M 1486.937 971.093 C 1479.074 973.637, 1460.232 978.168, 1445.500 981.058 C 1431.900 983.726, 1415.947 991.321, 1407.404 999.195 C 1403.728 1002.583, 1403.050 1003.890, 1402.081 1009.455 C 1401.471 1012.962, 1400.322 1017.669, 1399.530 1019.916 C 1398.737 1022.162, 1398.334 1024, 1398.635 1024 C 1398.935 1024, 1405.103 1020.660, 1412.340 1016.578 C 1425.896 1008.933, 1431.781 1006.283, 1443 1002.771 C 1452.050 999.938, 1464.318 996.984, 1464.845 997.512 C 1466.448 999.115, 1457.392 1003.848, 1439 1011.019 C 1428.935 1014.944, 1400.903 1029.358, 1396.309 1032.972 C 1394.170 1034.654, 1394.403 1034.722, 1404.303 1035.303 C 1418.314 1036.124, 1434.803 1039.500, 1445.233 1043.682 L 1453.966 1047.184 1457.320 1045.112 C 1459.164 1043.972, 1462.906 1040.668, 1465.634 1037.769 C 1471.277 1031.775, 1477.782 1018.023, 1483.729 999.511 C 1485.675 993.455, 1489.254 984.060, 1491.683 978.633 C 1494.112 973.206, 1495.965 968.666, 1495.800 968.544 C 1495.635 968.422, 1491.646 969.569, 1486.937 971.093 M 810 1042.076 C 810 1044.234, 821.376 1054.651, 826.637 1057.309 C 836.498 1062.293, 844.539 1063.977, 866 1065.554 C 894.312 1067.635, 899.223 1069.006, 912.506 1078.536 C 916.862 1081.662, 919.957 1083.607, 919.384 1082.859 C 918.810 1082.112, 916.141 1078.575, 913.452 1075 C 895.227 1050.768, 883.094 1045.103, 859.078 1049.610 C 845.630 1052.134, 836.577 1051.198, 825.356 1046.126 C 814.779 1041.345, 810 1040.084, 810 1042.076 M 852.497 1075.090 C 853.589 1080.219, 859.224 1091.964, 864.284 1099.660 C 868.335 1105.822, 876.842 1115.492, 877.570 1114.763 C 877.729 1114.605, 877.394 1112.297, 876.827 1109.636 C 876.259 1106.975, 876.091 1102.430, 876.452 1099.537 C 877.165 1093.827, 881.636 1083.484, 885.690 1078.165 C 887.304 1076.047, 887.882 1074.482, 887.276 1073.876 C 886.751 1073.351, 878.547 1072.642, 869.046 1072.300 L 851.771 1071.680 852.497 1075.090 M 1058.342 1074.479 C 1044.396 1077.010, 1032.917 1081.915, 1029.211 1086.929 C 1026.446 1090.668, 1025.010 1096.344, 1025.017 1103.500 C 1025.038 1123.099, 1038.390 1142.386, 1065 1161.259 C 1096.843 1183.842, 1120.035 1193.634, 1149.507 1196.939 C 1157.328 1197.816, 1157.458 1197.793, 1165.945 1193.974 C 1180.700 1187.336, 1195.945 1184.212, 1202.795 1186.423 C 1205.029 1187.144, 1205.073 1187.034, 1204.444 1182.291 C 1203.998 1178.928, 1204.266 1176.300, 1205.308 1173.804 L 1206.819 1170.189 1202.909 1167.047 C 1197.649 1162.820, 1197.597 1159.605, 1202.750 1157.263 C 1204.813 1156.326, 1206.653 1155.468, 1206.839 1155.357 C 1207.025 1155.246, 1205.291 1153.451, 1202.985 1151.368 C 1198.547 1147.358, 1196.313 1144.130, 1185.638 1126.305 C 1180.584 1117.866, 1177.097 1113.420, 1171.235 1107.945 C 1166.981 1103.971, 1162.375 1100.037, 1161 1099.203 C 1159.625 1098.368, 1156.025 1096.013, 1153 1093.969 C 1141.280 1086.049, 1125.188 1079.036, 1110.500 1075.446 C 1101.726 1073.302, 1098.355 1073.013, 1083 1073.092 C 1073.375 1073.140, 1062.279 1073.765, 1058.342 1074.479 M 891.300 1079.257 C 885.909 1087.203, 883.586 1094.162, 883.542 1102.500 C 883.504 1109.694, 883.802 1110.983, 886.500 1115.298 C 893.870 1127.086, 908.723 1130.144, 923.222 1122.858 C 927.866 1120.525, 934 1115.213, 934 1113.525 C 934 1110.889, 923.669 1096.579, 917.141 1090.170 C 910.076 1083.236, 899.024 1075.995, 895.523 1076.007 C 894.365 1076.011, 892.559 1077.401, 891.300 1079.257 M 933 1125.562 C 930.525 1127.448, 925.902 1129.957, 922.726 1131.138 C 919.550 1132.319, 917.163 1133.497, 917.421 1133.755 C 917.680 1134.013, 923.141 1135.989, 929.559 1138.145 C 935.976 1140.302, 942.526 1142.738, 944.113 1143.559 C 947.362 1145.239, 947.586 1144.696, 945.638 1139.872 C 944.888 1138.017, 943.049 1133.237, 941.550 1129.250 C 940.051 1125.263, 938.527 1122.030, 938.163 1122.067 C 937.798 1122.104, 935.475 1123.677, 933 1125.562 M 1432.308 1131.879 C 1431.816 1132.220, 1429.409 1134.977, 1426.957 1138.005 C 1414.598 1153.269, 1393.274 1170.142, 1374.500 1179.510 L 1361.500 1185.996 1380 1186.029 C 1403.678 1186.071, 1404.261 1186.147, 1460 1196.540 C 1478.981 1200.079, 1501 1205.273, 1501 1206.210 C 1501 1206.645, 1500.425 1207, 1499.721 1207 C 1498.160 1207, 1477.255 1204.014, 1455 1200.613 C 1432.655 1197.198, 1407.986 1195.072, 1383.712 1194.469 C 1372.595 1194.193, 1359.338 1193.762, 1354.250 1193.510 C 1349.162 1193.259, 1345.014 1193.379, 1345.031 1193.777 C 1345.075 1194.776, 1349.825 1198.151, 1351.542 1198.403 C 1354.729 1198.871, 1380.809 1226.048, 1387.743 1236.126 L 1390.884 1240.691 1405.192 1241.355 C 1413.061 1241.720, 1436.825 1242.011, 1458 1242.001 C 1499.589 1241.983, 1500.361 1241.920, 1537.500 1235.584 C 1549.050 1233.614, 1560.300 1231.956, 1562.500 1231.901 C 1564.700 1231.846, 1567.515 1231.508, 1568.756 1231.150 C 1570.804 1230.560, 1570.574 1230.254, 1566.256 1227.833 C 1559.781 1224.202, 1552.707 1217.931, 1531 1196.580 C 1501.571 1167.634, 1488.355 1156.905, 1469.732 1146.840 C 1450.488 1136.439, 1434.780 1130.160, 1432.308 1131.879 M 1268.550 1134.919 C 1267.959 1135.875, 1273.807 1146, 1274.949 1146 C 1276.423 1146, 1278 1143.436, 1277.992 1141.050 C 1277.987 1139.133, 1277.007 1137.942, 1274.044 1136.250 C 1269.591 1133.707, 1269.337 1133.646, 1268.550 1134.919 M 1291.776 1138.957 C 1288.875 1142.993, 1289.032 1144, 1292.560 1144 C 1294.935 1144, 1296 1142.291, 1296 1138.477 C 1296 1134.741, 1294.701 1134.889, 1291.776 1138.957 M 1259.563 1143.473 C 1257.941 1147.721, 1257.945 1148.099, 1259.643 1150.973 C 1260.627 1152.638, 1261.802 1154, 1262.256 1154 C 1263.825 1154, 1269 1149.619, 1269 1148.291 C 1269 1146.278, 1263.910 1139, 1262.503 1139 C 1261.826 1139, 1260.503 1141.013, 1259.563 1143.473 M 1242.750 1154.117 C 1238.435 1159.398, 1237.849 1162.306, 1241.199 1161.820 C 1243.995 1161.413, 1247.238 1155.923, 1246.820 1152.302 L 1246.500 1149.528 1242.750 1154.117 M 1295.938 1158.250 C 1292.080 1163.143, 1291.906 1163.622, 1292.968 1166.416 C 1293.666 1168.253, 1294.680 1169, 1296.475 1169 C 1299.310 1169, 1303 1165.834, 1303 1163.401 C 1303 1161.465, 1300.027 1155, 1299.136 1155 C 1298.786 1155, 1297.347 1156.463, 1295.938 1158.250 M 1249.489 1160.382 C 1248.522 1162.420, 1246.441 1164.755, 1244.865 1165.570 C 1242.396 1166.847, 1240.929 1169, 1242.529 1169 C 1243.777 1169, 1254.998 1162.903, 1254.978 1162.236 C 1254.966 1161.831, 1254.121 1160.415, 1253.101 1159.088 L 1251.247 1156.676 1249.489 1160.382 M 1226.557 1163.223 C 1224.419 1166.275, 1224.505 1166.510, 1228.655 1168.959 C 1232.530 1171.245, 1233.951 1170.639, 1233.985 1166.684 C 1234.030 1161.363, 1229.378 1159.195, 1226.557 1163.223 M 1275.897 1177.950 C 1275.246 1180.123, 1273.428 1183.132, 1271.857 1184.637 C 1268.162 1188.177, 1268.120 1190.234, 1271.750 1189.816 C 1274.127 1189.543, 1274.455 1189.114, 1274.166 1186.654 C 1273.955 1184.860, 1274.553 1183.012, 1275.784 1181.654 C 1276.857 1180.469, 1278.522 1178.263, 1279.483 1176.750 C 1281.184 1174.072, 1281.176 1174, 1279.155 1174 C 1277.605 1174, 1276.781 1174.999, 1275.897 1177.950 M 1296.146 1177.182 C 1292.078 1187.979, 1291.791 1191.001, 1294.833 1190.999 C 1297.132 1190.998, 1302.215 1181.706, 1301.815 1178.237 C 1301.391 1174.552, 1297.416 1173.812, 1296.146 1177.182 M 1241.598 1185.604 C 1240.788 1187.715, 1243.859 1192.332, 1246.405 1192.833 C 1248.301 1193.205, 1253 1190.475, 1253 1189 C 1253 1187.601, 1248.854 1185.121, 1245.342 1184.418 C 1242.968 1183.944, 1242.134 1184.208, 1241.598 1185.604 M 1207.066 1193.325 C 1205.884 1196.436, 1202.587 1198.461, 1192.741 1202.123 C 1182.876 1205.792, 1172.663 1207.906, 1164.537 1207.960 C 1158.606 1208, 1158.546 1208.030, 1153.242 1213.639 C 1150.309 1216.741, 1143.542 1224.653, 1138.205 1231.222 C 1118.361 1255.646, 1109.725 1270.642, 1104.073 1290.492 C 1099.665 1305.972, 1098.647 1313.734, 1099.350 1326.500 C 1100.957 1355.698, 1106.662 1366, 1121.223 1366 C 1128.884 1366, 1134.761 1363.899, 1155 1353.927 C 1175.645 1343.755, 1191.169 1334.699, 1198.335 1328.648 C 1201.176 1326.248, 1205.501 1322.856, 1207.946 1321.110 C 1216.028 1315.336, 1225.274 1306.605, 1231.225 1299.126 C 1237.477 1291.269, 1251 1265.398, 1251 1261.293 C 1251 1260.003, 1250.062 1255.327, 1248.915 1250.902 C 1246.731 1242.476, 1246.747 1238.944, 1249.038 1224 C 1250.522 1214.320, 1250.530 1211.164, 1249.078 1207.544 L 1247.893 1204.588 1244.535 1208.252 C 1240.429 1212.734, 1237.220 1213.682, 1233.196 1211.601 C 1229.540 1209.711, 1226 1205.413, 1226 1202.865 C 1226 1201.560, 1225.275 1201, 1223.587 1201 C 1222.157 1201, 1218.739 1198.965, 1215.191 1196 C 1211.900 1193.250, 1208.924 1191, 1208.579 1191 C 1208.233 1191, 1207.553 1192.046, 1207.066 1193.325 M 1298.533 1194.947 C 1298.175 1195.526, 1296.644 1196, 1295.132 1196 C 1293.209 1196, 1290.895 1197.432, 1287.441 1200.759 C 1284.651 1203.447, 1280.648 1206.129, 1278.245 1206.921 C 1275.651 1207.776, 1272.997 1209.626, 1271.444 1211.663 C 1270.043 1213.499, 1267.642 1215.651, 1266.108 1216.444 L 1263.319 1217.887 1262.671 1234.318 C 1262.314 1243.356, 1261.518 1252.944, 1260.901 1255.625 L 1259.780 1260.500 1269.041 1279.932 C 1280.408 1303.782, 1283.496 1309.025, 1291.899 1318.737 C 1298.394 1326.244, 1315.142 1341.115, 1322 1345.464 C 1341.189 1357.634, 1382.516 1361.714, 1401.282 1353.293 C 1408.807 1349.916, 1410 1347.430, 1410 1335.131 C 1410 1312.140, 1401.718 1283.739, 1389.258 1264 C 1383.045 1254.159, 1381.494 1253, 1374.537 1253 C 1360.685 1253, 1339.123 1248.824, 1324.627 1243.334 C 1316.004 1240.068, 1309 1233.799, 1309 1229.346 C 1309 1226.003, 1311.876 1222.749, 1316.315 1221.067 C 1323.249 1218.439, 1340.773 1220.398, 1356.623 1225.572 C 1360.827 1226.944, 1364.538 1227.796, 1364.869 1227.464 C 1365.913 1226.420, 1344.832 1206.976, 1337.149 1201.896 L 1329.799 1197.036 1321.117 1197.652 C 1313.026 1198.227, 1307.215 1197.314, 1300.342 1194.388 C 1299.705 1194.116, 1298.890 1194.368, 1298.533 1194.947 M 1253.731 1199.633 L 1250.999 1201.064 1253.508 1206.015 C 1256.224 1211.375, 1259.260 1213.002, 1262.907 1211.050 C 1265.694 1209.558, 1265.514 1208.872, 1261.711 1206.482 C 1259.939 1205.368, 1258.044 1203.062, 1257.482 1201.333 C 1256.494 1198.293, 1256.383 1198.243, 1253.731 1199.633 M 1230 1202.909 C 1230 1205.273, 1233.571 1208, 1236.666 1208 C 1238.988 1208, 1242.524 1204.070, 1241.241 1202.915 C 1240.833 1202.548, 1238.138 1201.952, 1235.250 1201.590 C 1230.464 1200.989, 1230 1201.106, 1230 1202.909 M 1254.305 1219.583 C 1252.893 1223.142, 1253.695 1242.028, 1255.328 1243.661 C 1256.335 1244.668, 1258.199 1231.431, 1257.809 1226.043 C 1257.332 1219.437, 1255.617 1216.276, 1254.305 1219.583 M 1324 1231.301 C 1327.557 1234.895, 1363.003 1243.422, 1364.476 1241.038 C 1365.806 1238.887, 1341.973 1231.684, 1329.500 1230.468 C 1323.250 1229.859, 1322.661 1229.948, 1324 1231.301 M 929.500 1319.557 C 921.001 1322.571, 914.407 1326.537, 911.596 1330.325 C 909.791 1332.757, 909.522 1334.426, 909.656 1342.325 C 909.742 1347.371, 910.572 1358.250, 911.501 1366.500 C 912.429 1374.750, 913.034 1386.192, 912.845 1391.927 L 912.500 1402.355 917.500 1403.718 C 921.820 1404.896, 934.344 1404.989, 935.481 1403.852 C 935.685 1403.649, 935.334 1401.547, 934.703 1399.183 C 932.525 1391.024, 937.109 1386.995, 948.694 1386.887 C 958.230 1386.798, 963.945 1389.275, 975.595 1398.550 C 981.009 1402.860, 987.027 1406.955, 988.969 1407.649 C 999.893 1411.557, 1013.580 1406.479, 1017.676 1397 C 1022.018 1386.953, 1016.526 1369.096, 1008.089 1365.824 C 1006.665 1365.272, 999.995 1364.452, 993.267 1364.002 C 980.134 1363.124, 977.352 1362.122, 971.730 1356.245 C 968.254 1352.611, 967.193 1349.001, 965.998 1336.745 C 965.474 1331.380, 964.401 1325.742, 963.612 1324.217 C 959.805 1316.854, 943.430 1314.617, 929.500 1319.557 M 1446.500 1375.611 C 1444.850 1375.840, 1437.650 1376.720, 1430.500 1377.568 C 1386.068 1382.837, 1355.549 1389.230, 1321.997 1400.300 C 1278.964 1414.498, 1248.182 1429.123, 1215.765 1450.771 C 1193.360 1465.733, 1165.440 1491.164, 1149.643 1511 C 1116.397 1552.746, 1098.232 1597.665, 1092.018 1653.500 C 1090.848 1664.013, 1090.645 1704, 1091.761 1704 C 1095.257 1704, 1141.069 1690.418, 1162 1683.175 C 1192.253 1672.708, 1237.428 1652.654, 1268.253 1636.010 L 1276.006 1631.823 1274.003 1629.277 C 1270.949 1625.394, 1271.421 1621.379, 1275.400 1617.400 C 1278.565 1614.235, 1279.247 1614, 1285.260 1614 C 1290.418 1614, 1292.429 1614.481, 1295.232 1616.383 L 1298.743 1618.765 1302.121 1616.697 C 1321.622 1604.760, 1349.858 1585.557, 1363.352 1575.055 C 1372.758 1567.734, 1392.246 1551.542, 1398.209 1546.092 L 1403.708 1541.067 1402.803 1535.298 C 1401.580 1527.496, 1403.311 1517.783, 1407.111 1511.130 C 1412.749 1501.258, 1424.715 1496.423, 1436.399 1499.296 C 1439.755 1500.121, 1442.536 1500.730, 1442.580 1500.648 C 1442.624 1500.567, 1445.718 1496.675, 1449.455 1492 C 1465.983 1471.326, 1478.847 1448.520, 1485.863 1427.454 C 1491.770 1409.718, 1492.724 1403.539, 1490.588 1396.863 C 1487.654 1387.696, 1483.370 1382.349, 1476.058 1378.727 C 1470.221 1375.836, 1468.672 1375.520, 1459.558 1375.366 C 1454.026 1375.272, 1448.150 1375.382, 1446.500 1375.611 M 859.332 1462.901 C 854.357 1464.178, 847.318 1468.716, 844.419 1472.517 C 840.951 1477.064, 839.826 1487.560, 842.389 1491.470 C 843.830 1493.671, 844.764 1494, 849.565 1494 C 852.601 1494, 858.328 1494.666, 862.292 1495.480 C 866.256 1496.294, 876.025 1498.064, 884 1499.414 C 897.873 1501.761, 927.109 1509.524, 954.174 1518.047 C 963.122 1520.864, 972.884 1525.113, 987.374 1532.496 C 1009.463 1543.750, 1027 1551.480, 1027 1549.962 C 1027 1549.444, 1024.412 1547.372, 1021.250 1545.358 C 1018.087 1543.343, 1012.368 1539.626, 1008.539 1537.098 C 1001.769 1532.626, 984.127 1515.617, 959.500 1489.817 C 949.944 1479.806, 946.310 1476.696, 941.657 1474.549 C 935.844 1471.867, 935.729 1471.857, 920.157 1472.546 L 904.500 1473.240 889.434 1468.124 C 874.132 1462.927, 865.240 1461.385, 859.332 1462.901 M 1269.250 1468.095 C 1268.289 1469.098, 1268 1479.508, 1268 1513.129 C 1268 1550.231, 1268.222 1557.079, 1269.467 1558.324 C 1270.655 1559.512, 1273.368 1559.705, 1283.717 1559.335 C 1304.123 1558.606, 1311.806 1556.080, 1321.497 1546.914 C 1332.077 1536.908, 1337.133 1519.326, 1333.895 1503.799 C 1331.196 1490.858, 1322.570 1478.669, 1312.313 1473.306 C 1304.436 1469.187, 1299.806 1468.230, 1284 1467.453 C 1273.510 1466.938, 1270.221 1467.081, 1269.250 1468.095 M 1831.200 1468.200 C 1830.303 1469.097, 1830 1480.570, 1830 1513.665 C 1830 1556.405, 1830.067 1557.965, 1831.934 1558.965 C 1833.099 1559.588, 1842.598 1560, 1855.812 1560 C 1874.014 1560, 1877.966 1559.746, 1878.989 1558.513 C 1879.668 1557.695, 1879.963 1556.345, 1879.643 1555.513 C 1879.153 1554.236, 1876.097 1554, 1860.031 1554 L 1841 1554 1841 1534.500 L 1841 1515 1854.878 1515 C 1865.993 1515, 1869.003 1514.701, 1870 1513.500 C 1870.993 1512.303, 1870.993 1511.697, 1870 1510.500 C 1869.003 1509.299, 1865.993 1509, 1854.878 1509 L 1841 1509 1841 1491 L 1841 1473 1860.031 1473 C 1876.097 1473, 1879.153 1472.764, 1879.643 1471.487 C 1879.963 1470.655, 1879.668 1469.305, 1878.989 1468.487 C 1877.963 1467.251, 1873.929 1467, 1855.078 1467 C 1838.773 1467, 1832.063 1467.337, 1831.200 1468.200 M 2161.200 1469.200 C 2160.303 1470.097, 2160 1481.471, 2160 1514.221 L 2160 1558.043 2162.540 1559.200 C 2164.264 1559.986, 2165.951 1560.052, 2167.790 1559.405 L 2170.500 1558.453 2170.770 1536.020 C 2171.030 1514.383, 2171.119 1513.502, 2173.270 1511.196 C 2179.105 1504.941, 2188.103 1503.452, 2193.913 1507.780 C 2198.882 1511.480, 2199.886 1516.515, 2199.946 1538.050 C 2200.004 1559.015, 2200.234 1560, 2205.078 1560 C 2209.944 1560, 2210.166 1558.842, 2209.821 1535.313 L 2209.500 1513.500 2206.648 1508.648 C 2200.947 1498.948, 2186.428 1496.043, 2175.540 1502.424 L 2171 1505.084 2171 1487.742 C 2171 1468.854, 2170.762 1468, 2165.500 1468 C 2163.795 1468, 2161.860 1468.540, 2161.200 1469.200 M 2497.099 1474.602 C 2493.516 1479.156, 2496.183 1484.283, 2501.883 1483.801 C 2504.534 1483.576, 2505.821 1482.813, 2506.948 1480.796 C 2508.342 1478.301, 2508.298 1477.875, 2506.381 1475.296 C 2503.510 1471.435, 2499.807 1471.158, 2497.099 1474.602 M 1279 1513.442 L 1279 1554.171 1286.750 1553.511 C 1297.219 1552.621, 1303.939 1550.625, 1308.399 1547.080 C 1317.475 1539.867, 1321.920 1530.542, 1322.735 1517 C 1323.614 1502.390, 1319.108 1489.879, 1310.026 1481.713 C 1304.012 1476.306, 1298.508 1474.293, 1287.250 1473.381 L 1279 1472.712 1279 1513.442 M 2067.714 1478.620 C 2067.321 1479.012, 2067 1483.533, 2067 1488.667 C 2067 1497.218, 2066.838 1498, 2065.071 1498 C 2064.011 1498, 2062.420 1498.723, 2061.537 1499.606 C 2059.498 1501.645, 2061.151 1504, 2064.622 1504 L 2067 1504 2067 1523.351 C 2067 1543.746, 2067.545 1547.167, 2071.679 1552.737 C 2075.724 1558.186, 2082.743 1560.657, 2089.250 1558.923 C 2095.067 1557.372, 2093.768 1554, 2087.352 1554 C 2083.744 1554, 2081.257 1552.376, 2079.270 1548.720 C 2077.800 1546.016, 2077.464 1542.174, 2077.172 1524.750 L 2076.825 1504 2084.444 1504 C 2090.322 1504, 2092.195 1503.654, 2092.643 1502.487 C 2093.821 1499.418, 2091.063 1498, 2083.914 1498 L 2077.072 1498 2076.786 1488.250 L 2076.500 1478.500 2072.464 1478.203 C 2070.244 1478.040, 2068.106 1478.227, 2067.714 1478.620 M 2402.714 1478.620 C 2402.321 1479.012, 2402 1483.533, 2402 1488.667 C 2402 1497.005, 2401.807 1498, 2400.191 1498 C 2399.196 1498, 2397.526 1498.626, 2396.479 1499.392 C 2394.862 1500.574, 2394.776 1501.025, 2395.910 1502.392 C 2396.644 1503.276, 2398.315 1504, 2399.622 1504 L 2402 1504 2402 1523.351 C 2402 1543.746, 2402.545 1547.167, 2406.679 1552.737 C 2410.724 1558.186, 2417.743 1560.657, 2424.250 1558.923 C 2430.067 1557.372, 2428.768 1554, 2422.352 1554 C 2418.744 1554, 2416.257 1552.376, 2414.270 1548.720 C 2412.800 1546.016, 2412.464 1542.174, 2412.172 1524.750 L 2411.825 1504 2419.444 1504 C 2425.322 1504, 2427.195 1503.654, 2427.643 1502.487 C 2428.821 1499.418, 2426.063 1498, 2418.914 1498 L 2412.072 1498 2411.786 1488.250 L 2411.500 1478.500 2407.464 1478.203 C 2405.244 1478.040, 2403.106 1478.227, 2402.714 1478.620 M 1673.027 1499.467 C 1672.339 1500.296, 1672.033 1501.643, 1672.347 1502.461 C 1672.809 1503.667, 1675.741 1504, 1687.869 1504.224 L 1702.821 1504.500 1687.261 1530.402 C 1675.077 1550.686, 1671.920 1556.651, 1672.709 1557.902 C 1674.188 1560.248, 1713.067 1560.829, 1714.973 1558.533 C 1715.661 1557.704, 1715.967 1556.357, 1715.653 1555.539 C 1715.190 1554.333, 1712.249 1554, 1700.042 1553.776 L 1685 1553.500 1700.596 1527.514 C 1712.339 1507.948, 1715.956 1501.154, 1715.238 1500.014 C 1713.807 1497.744, 1674.876 1497.239, 1673.027 1499.467 M 2297.803 1499.351 C 2286.909 1502.396, 2280.106 1510.514, 2278.004 1522.977 C 2275.287 1539.087, 2281.817 1553.364, 2293.765 1557.436 C 2309.413 1562.768, 2328 1553.160, 2328 1539.740 C 2328 1535.703, 2326.494 1534, 2322.922 1534 C 2319.473 1534, 2318.407 1535.432, 2317.575 1541.180 C 2315.375 1556.393, 2297.101 1558.770, 2290.143 1544.748 C 2288.847 1542.135, 2288.045 1539.326, 2288.360 1538.505 C 2289.382 1535.840, 2295.221 1533.114, 2304.458 1530.988 C 2318.690 1527.712, 2322.702 1526.142, 2325.578 1522.725 C 2327.814 1520.068, 2328.147 1518.880, 2327.767 1514.923 C 2327.167 1508.686, 2323.837 1504.269, 2317.591 1501.427 C 2311.044 1498.449, 2303.765 1497.685, 2297.803 1499.351 M 2497.200 1499.200 C 2496.324 1500.076, 2496 1507.978, 2496 1528.500 C 2496 1549.022, 2496.324 1556.924, 2497.200 1557.800 C 2497.860 1558.460, 2499.795 1559, 2501.500 1559 C 2503.205 1559, 2505.140 1558.460, 2505.800 1557.800 C 2506.676 1556.924, 2507 1549.022, 2507 1528.500 C 2507 1507.978, 2506.676 1500.076, 2505.800 1499.200 C 2505.140 1498.540, 2503.205 1498, 2501.500 1498 C 2499.795 1498, 2497.860 1498.540, 2497.200 1499.200 M 2596.500 1498.938 C 2585.062 1501.735, 2578.336 1509.664, 2575.994 1523.111 C 2573.984 1534.657, 2577.093 1545.918, 2584.166 1552.707 C 2597.819 1565.813, 2626 1557.073, 2626 1539.732 C 2626 1535.702, 2624.492 1534, 2620.922 1534 C 2617.473 1534, 2616.407 1535.432, 2615.575 1541.180 C 2613.464 1555.775, 2595.621 1558.854, 2588.861 1545.789 C 2585.734 1539.745, 2585.095 1526.246, 2587.514 1517.311 C 2591.252 1503.500, 2602.432 1498.883, 2611.478 1507.415 C 2613.925 1509.722, 2615.120 1511.895, 2615.603 1514.917 C 2616.420 1520.031, 2619.430 1522.037, 2623.500 1520.182 C 2626.675 1518.735, 2626.855 1514.293, 2623.947 1509.119 C 2621.246 1504.314, 2616.311 1501.046, 2609.245 1499.383 C 2602.958 1497.904, 2601.009 1497.836, 2596.500 1498.938 M 1521.571 1500.571 C 1520.218 1501.925, 1520 1506.017, 1520 1530.093 L 1520 1558.043 1522.540 1559.200 C 1524.264 1559.986, 1525.951 1560.052, 1527.790 1559.405 L 1530.500 1558.453 1530.769 1536.788 L 1531.039 1515.123 1535.224 1511.540 C 1544.784 1503.357, 1554.161 1504.716, 1556.929 1514.685 C 1557.512 1516.783, 1557.991 1527.298, 1557.994 1538.050 C 1557.998 1551.916, 1558.349 1557.949, 1559.200 1558.800 C 1560.805 1560.405, 1565.484 1560.327, 1566.858 1558.672 C 1567.567 1557.817, 1568.056 1549.550, 1568.230 1535.472 L 1568.500 1513.600 1572.774 1510.341 C 1580.486 1504.461, 1587.754 1504.719, 1591.447 1511.005 C 1593.313 1514.182, 1593.529 1516.456, 1593.824 1535.986 C 1594.020 1549.018, 1594.560 1557.970, 1595.196 1558.736 C 1596.525 1560.338, 1601.223 1560.377, 1602.800 1558.800 C 1603.661 1557.939, 1603.994 1551.504, 1603.978 1536.050 C 1603.959 1517.371, 1603.713 1513.966, 1602.135 1510.491 C 1599.802 1505.357, 1594.021 1500.282, 1589.548 1499.443 C 1584.407 1498.479, 1576.791 1500.682, 1570.893 1504.840 L 1565.701 1508.500 1561.568 1504.336 C 1554.820 1497.538, 1546.148 1497.436, 1536 1504.037 L 1531.500 1506.964 1531.188 1504.232 C 1530.636 1499.400, 1524.919 1497.224, 1521.571 1500.571 M 1961.558 1500.431 C 1952.984 1503.618, 1948.524 1509.469, 1949.374 1516.413 C 1950.282 1523.825, 1955.254 1527.872, 1969.199 1532.548 C 1982.035 1536.853, 1986.396 1541.197, 1984.058 1547.348 C 1981.950 1552.891, 1972.036 1556.295, 1965.705 1553.650 C 1961.139 1551.742, 1958.814 1548.117, 1958.225 1541.987 C 1957.660 1536.110, 1955.307 1533.455, 1951.506 1534.409 C 1943.567 1536.402, 1947.845 1550.847, 1957.876 1555.921 C 1969.066 1561.580, 1981.832 1560.195, 1988.970 1552.549 C 1990.976 1550.400, 1991.509 1548.643, 1991.807 1543.201 C 1992.415 1532.069, 1989.006 1528.651, 1970.685 1522.027 C 1958.606 1517.660, 1955.578 1514.820, 1958.402 1510.509 C 1962.890 1503.660, 1973.438 1501.739, 1979.046 1506.750 C 1981.327 1508.788, 1982.272 1510.665, 1982.697 1514 C 1983.379 1519.353, 1984.491 1521, 1987.422 1521 C 1990.570 1521, 1992 1519.110, 1992 1514.948 C 1992 1510.123, 1988.517 1505.104, 1983.089 1502.108 C 1977.631 1499.094, 1967.314 1498.291, 1961.558 1500.431 M 2707.558 1500.431 C 2698.984 1503.618, 2694.524 1509.469, 2695.374 1516.413 C 2696.282 1523.825, 2701.254 1527.872, 2715.199 1532.548 C 2728.035 1536.853, 2732.396 1541.197, 2730.058 1547.348 C 2727.950 1552.891, 2718.036 1556.295, 2711.705 1553.650 C 2707.139 1551.742, 2704.814 1548.117, 2704.225 1541.987 C 2703.660 1536.110, 2701.307 1533.455, 2697.506 1534.409 C 2689.567 1536.402, 2693.845 1550.847, 2703.876 1555.921 C 2715.066 1561.580, 2727.832 1560.195, 2734.970 1552.549 C 2736.976 1550.400, 2737.509 1548.643, 2737.807 1543.201 C 2738.415 1532.069, 2735.006 1528.651, 2716.685 1522.027 C 2704.606 1517.660, 2701.578 1514.820, 2704.402 1510.509 C 2708.890 1503.660, 2719.438 1501.739, 2725.046 1506.750 C 2727.327 1508.788, 2728.272 1510.665, 2728.697 1514 C 2729.379 1519.353, 2730.491 1521, 2733.422 1521 C 2736.570 1521, 2738 1519.110, 2738 1514.948 C 2738 1510.123, 2734.517 1505.104, 2729.089 1502.108 C 2723.631 1499.094, 2713.314 1498.291, 2707.558 1500.431 M 1422.922 1505.274 C 1416.719 1509.454, 1413 1517.812, 1413 1527.572 C 1413 1531.005, 1413.028 1531.028, 1415.390 1529.480 C 1418.212 1527.631, 1437 1507.343, 1437 1506.145 C 1437 1504.889, 1432.254 1503, 1429.101 1503 C 1427.558 1503, 1424.777 1504.023, 1422.922 1505.274 M 2297.922 1505.274 C 2291.744 1509.437, 2288 1517.813, 2288 1527.473 L 2288 1530.847 2291.130 1529.285 C 2292.851 1528.427, 2298.263 1526.705, 2303.155 1525.461 C 2313.317 1522.875, 2316.709 1521.009, 2317.584 1517.523 C 2318.444 1514.095, 2315.227 1508.011, 2311.102 1505.263 C 2306.776 1502.382, 2302.208 1502.385, 2297.922 1505.274 M 1439.862 1510.865 C 1439.663 1511.437, 1436.350 1515.140, 1432.500 1519.093 C 1428.422 1523.281, 1426.335 1526.039, 1427.500 1525.700 C 1428.600 1525.381, 1431.464 1524.611, 1433.865 1523.990 C 1440.014 1522.400, 1443.408 1518.792, 1442.593 1514.715 C 1441.904 1511.269, 1440.441 1509.206, 1439.862 1510.865 M 935.500 1557.440 C 928.350 1558.697, 920.475 1560.272, 918 1560.939 C 906.491 1564.042, 897.068 1567.301, 897.515 1568.024 C 898.605 1569.788, 924.744 1575.168, 938.718 1576.505 C 952.529 1577.826, 954.550 1577.786, 969.500 1575.902 C 987.799 1573.595, 991.440 1572.775, 998.807 1569.303 C 1003.030 1567.312, 1004.051 1566.373, 1003.807 1564.701 C 1002.551 1556.101, 965.510 1552.164, 935.500 1557.440 M 2309.923 1615.923 C 2307.544 1618.302, 2307 1619.698, 2307 1623.423 C 2307 1627.333, 2306.709 1628, 2305 1628 C 2303.900 1628, 2303 1628.450, 2303 1629 C 2303 1629.550, 2303.900 1630, 2305 1630 C 2306.897 1630, 2307 1630.667, 2307 1643 L 2307 1656 2309.500 1656 L 2312 1656 2312 1643 L 2312 1630 2315 1630 C 2316.650 1630, 2318 1629.550, 2318 1629 C 2318 1628.450, 2316.650 1628, 2315 1628 C 2312.119 1628, 2312 1627.824, 2312 1623.582 C 2312 1621.152, 2312.273 1618.452, 2312.607 1617.582 C 2313.376 1615.578, 2315.881 1615.527, 2316.638 1617.500 C 2317.297 1619.216, 2321.553 1619.532, 2322.539 1617.937 C 2323.722 1616.022, 2319.884 1613, 2316.268 1613 C 2313.819 1613, 2312.015 1613.831, 2309.923 1615.923 M 1461 1635 L 1461 1656 1463.500 1656 L 1466 1656 1466 1635 L 1466 1614 1463.500 1614 L 1461 1614 1461 1635 M 1885 1635 L 1885 1656 1887.500 1656 L 1890 1656 1890 1635 L 1890 1614 1887.500 1614 L 1885 1614 1885 1635 M 1952 1635 L 1952 1656 1954.500 1656 C 1956.844 1656, 1957.003 1655.672, 1957.043 1650.750 L 1957.087 1645.500 1961.793 1650.750 C 1965.641 1655.042, 1967.093 1656.001, 1969.750 1656 C 1971.537 1656, 1973 1655.730, 1973 1655.400 C 1973 1655.069, 1970.092 1651.550, 1966.537 1647.578 L 1960.075 1640.358 1965.537 1634.963 C 1968.542 1631.996, 1971 1629.215, 1971 1628.784 C 1971 1626.733, 1968.047 1628.506, 1962.779 1633.719 L 1957 1639.437 1957 1626.719 L 1957 1614 1954.500 1614 L 1952 1614 1952 1635 M 2267 1621.285 L 2267 1628.570 2261.022 1628.535 C 2255.594 1628.503, 2254.745 1628.798, 2251.805 1631.736 C 2248.887 1634.651, 2248.528 1635.664, 2248.171 1641.974 C 2247.782 1648.856, 2247.835 1649.035, 2251.274 1652.474 C 2254.755 1655.955, 2254.814 1655.972, 2263.386 1655.855 L 2272 1655.738 2272 1634.869 L 2272 1614 2269.500 1614 C 2267.062 1614, 2267 1614.181, 2267 1621.285 M 2364 1635 L 2364 1656 2366.500 1656 L 2369 1656 2369 1635 L 2369 1614 2366.500 1614 L 2364 1614 2364 1635 M 2379 1635 L 2379 1656 2381.500 1656 L 2384 1656 2384 1635 L 2384 1614 2381.500 1614 L 2379 1614 2379 1635 M 2415 1634.969 L 2415 1655.937 2423.896 1655.719 C 2430.976 1655.545, 2433.213 1655.118, 2434.858 1653.629 C 2439.323 1649.588, 2440.206 1639.016, 2436.547 1633.431 C 2434.221 1629.882, 2428.561 1627.655, 2423.802 1628.416 L 2420 1629.024 2420 1621.512 C 2420 1614.166, 2419.945 1614, 2417.500 1614 L 2415 1614 2415 1634.969 M 2502 1621.285 L 2502 1628.570 2496.022 1628.535 C 2490.594 1628.503, 2489.745 1628.798, 2486.805 1631.736 C 2483.887 1634.651, 2483.528 1635.664, 2483.171 1641.974 C 2482.782 1648.856, 2482.835 1649.035, 2486.274 1652.474 C 2489.755 1655.955, 2489.814 1655.972, 2498.386 1655.855 L 2507 1655.738 2507 1634.869 L 2507 1614 2504.500 1614 C 2502.062 1614, 2502 1614.181, 2502 1621.285 M 1279.455 1618.455 C 1276.594 1621.315, 1276.421 1622.728, 1278.557 1625.777 C 1280.553 1628.628, 1281.721 1628.574, 1287.456 1625.369 C 1293.196 1622.160, 1294.087 1620.299, 1291.056 1617.844 C 1287.765 1615.180, 1282.450 1615.459, 1279.455 1618.455 M 1770 1623.500 C 1770 1626.833, 1769.611 1628, 1768.500 1628 C 1767.675 1628, 1767 1628.450, 1767 1629 C 1767 1629.550, 1767.675 1630, 1768.500 1630 C 1769.737 1630, 1770 1631.818, 1770 1640.365 C 1770 1649.337, 1770.279 1651.084, 1772.073 1653.365 C 1773.683 1655.413, 1775.021 1656, 1778.073 1656 C 1780.233 1656, 1782 1655.550, 1782 1655 C 1782 1654.450, 1781.126 1654, 1780.057 1654 C 1776.318 1654, 1775 1650.292, 1775 1639.777 L 1775 1630 1778.500 1630 C 1780.425 1630, 1782 1629.550, 1782 1629 C 1782 1628.450, 1780.425 1628, 1778.500 1628 C 1775.019 1628, 1775 1627.976, 1775 1623.500 C 1775 1619.367, 1774.796 1619, 1772.500 1619 C 1770.204 1619, 1770 1619.367, 1770 1623.500 M 1827.750 1628.303 L 1824 1629.353 1824 1642.676 L 1824 1656 1826.500 1656 L 1829 1656 1829 1643.469 C 1829 1632.762, 1829.240 1630.845, 1830.645 1630.306 C 1831.619 1629.932, 1832.785 1630.353, 1833.505 1631.338 C 1835.245 1633.717, 1839 1633.511, 1839 1631.035 C 1839 1627.332, 1834.832 1626.320, 1827.750 1628.303 M 2103.750 1628.303 L 2100 1629.353 2100 1642.676 L 2100 1656 2102.500 1656 L 2105 1656 2105 1643.469 C 2105 1632.762, 2105.240 1630.845, 2106.645 1630.306 C 2107.619 1629.932, 2108.785 1630.353, 2109.505 1631.338 C 2111.245 1633.717, 2115 1633.511, 2115 1631.035 C 2115 1627.332, 2110.832 1626.320, 2103.750 1628.303 M 1314.250 1628.732 L 1310 1629.115 1310 1648.557 L 1310 1668 1312.500 1668 C 1314.900 1668, 1315 1667.750, 1314.999 1661.750 L 1314.997 1655.500 1320.263 1655.829 C 1324.525 1656.095, 1326.075 1655.729, 1328.386 1653.911 C 1336.191 1647.771, 1335.683 1633.450, 1327.522 1629.577 C 1324.272 1628.035, 1322.935 1627.950, 1314.250 1628.732 M 1350.500 1629.403 C 1345.163 1631.758, 1343.596 1634.464, 1343.166 1642.061 C 1342.783 1648.846, 1342.841 1649.041, 1346.288 1652.488 C 1349.297 1655.497, 1350.466 1656, 1354.450 1656 C 1361.954 1656, 1367 1652.408, 1367 1647.066 C 1367 1643.668, 1362.216 1644.251, 1361.385 1647.750 C 1359.614 1655.204, 1352.765 1656.314, 1349.346 1649.701 C 1347.882 1646.872, 1347.895 1646.550, 1349.514 1645.366 C 1350.476 1644.663, 1353.791 1643.576, 1356.882 1642.952 C 1359.972 1642.328, 1363.513 1641.173, 1364.750 1640.385 C 1368.884 1637.755, 1367.085 1631.769, 1361.452 1629.415 C 1357.295 1627.679, 1354.413 1627.675, 1350.500 1629.403 M 1383.500 1628.954 C 1378.732 1630.926, 1376.578 1634.768, 1376.168 1642.037 C 1375.783 1648.850, 1375.839 1649.039, 1379.288 1652.488 C 1382.297 1655.497, 1383.466 1656, 1387.450 1656 C 1394.954 1656, 1400 1652.408, 1400 1647.066 C 1400 1643.668, 1395.216 1644.251, 1394.385 1647.750 C 1392.535 1655.535, 1384.678 1656.253, 1382.105 1648.872 C 1378.741 1639.222, 1384.081 1627.893, 1390.594 1630.861 C 1391.976 1631.490, 1393.576 1633.354, 1394.151 1635.003 C 1394.920 1637.211, 1395.828 1638, 1397.598 1638 C 1399.111 1638, 1400 1637.421, 1400 1636.434 C 1400 1630.446, 1390.407 1626.097, 1383.500 1628.954 M 1410 1641.934 L 1410 1656 1413.028 1656 L 1416.056 1656 1415.778 1642.250 L 1415.500 1628.500 1412.750 1628.184 L 1410 1627.867 1410 1641.934 M 1432.327 1628.696 C 1428.850 1629.373, 1424.858 1633.989, 1425.201 1636.935 C 1425.655 1640.828, 1429.145 1640.381, 1430.203 1636.295 C 1431.032 1633.097, 1434.262 1630, 1436.768 1630 C 1438.763 1630, 1443 1634.645, 1443 1636.833 C 1443 1638.883, 1440.650 1640.109, 1433 1642.046 C 1427.314 1643.486, 1425 1645.543, 1425 1649.155 C 1425 1653.780, 1428.102 1656, 1434.566 1656 C 1437.627 1656, 1441.002 1655.534, 1442.066 1654.965 C 1443.399 1654.251, 1444 1654.251, 1444 1654.965 C 1444 1655.534, 1445.125 1656, 1446.500 1656 C 1448.983 1656, 1449 1655.940, 1449 1646.901 C 1449 1636.126, 1447.420 1631.902, 1442.522 1629.577 C 1439.288 1628.043, 1436.788 1627.827, 1432.327 1628.696 M 1476 1641.934 L 1476 1656 1479.028 1656 L 1482.056 1656 1481.778 1642.250 L 1481.500 1628.500 1478.750 1628.184 L 1476 1627.867 1476 1641.934 M 1491 1629.456 C 1491 1630.562, 1492.662 1630.983, 1497.914 1631.206 L 1504.828 1631.500 1497.915 1643 C 1494.114 1649.325, 1491.003 1654.838, 1491.002 1655.250 C 1491.001 1655.662, 1495.725 1656, 1501.500 1656 C 1507.833 1656, 1512 1655.603, 1512 1655 C 1512 1654.429, 1509 1654, 1505 1654 C 1501.150 1654, 1498 1653.795, 1498 1653.545 C 1498 1653.295, 1501.150 1647.875, 1505 1641.500 C 1508.850 1635.125, 1512 1629.480, 1512 1628.955 C 1512 1628.409, 1507.501 1628, 1501.500 1628 C 1492.974 1628, 1491 1628.274, 1491 1629.456 M 1522 1641.934 L 1522 1656 1525.028 1656 L 1528.056 1656 1527.778 1642.250 L 1527.500 1628.500 1524.750 1628.184 L 1522 1627.867 1522 1641.934 M 1574.329 1629.494 C 1572.585 1630.233, 1570.672 1631.744, 1570.079 1632.853 C 1568.709 1635.412, 1568.686 1641.544, 1570.035 1644.066 C 1570.754 1645.409, 1570.743 1646.612, 1570 1648 C 1569.256 1649.391, 1569.246 1650.590, 1569.968 1651.939 C 1570.658 1653.229, 1570.670 1654.086, 1570.003 1654.498 C 1569.451 1654.839, 1569 1656.813, 1569 1658.885 C 1569 1664.276, 1572.400 1667.203, 1579.329 1667.777 C 1585.209 1668.265, 1590.175 1666.410, 1591.970 1663.055 C 1595.041 1657.318, 1590.596 1651, 1583.489 1651 C 1578.004 1651, 1573 1649.986, 1573 1648.875 C 1573 1648.394, 1576.170 1648, 1580.045 1648 C 1586.192 1648, 1587.404 1647.687, 1589.545 1645.545 C 1592.214 1642.877, 1592.921 1636.590, 1590.965 1632.934 C 1589.575 1630.338, 1590.756 1630.477, 1592.934 1633.167 C 1594.044 1634.538, 1595.297 1635.100, 1596.344 1634.698 C 1598.426 1633.899, 1598.476 1631.640, 1596.449 1629.957 C 1594.232 1628.118, 1578.361 1627.785, 1574.329 1629.494 M 1630 1641.934 L 1630 1656 1633.028 1656 L 1636.056 1656 1635.778 1642.250 L 1635.500 1628.500 1632.750 1628.184 L 1630 1627.867 1630 1641.934 M 1738.327 1628.696 C 1734.850 1629.373, 1730.858 1633.989, 1731.201 1636.935 C 1731.655 1640.828, 1735.145 1640.381, 1736.203 1636.295 C 1737.032 1633.097, 1740.262 1630, 1742.768 1630 C 1744.763 1630, 1749 1634.645, 1749 1636.833 C 1749 1638.883, 1746.650 1640.109, 1739 1642.046 C 1733.314 1643.486, 1731 1645.543, 1731 1649.155 C 1731 1653.780, 1734.102 1656, 1740.566 1656 C 1743.627 1656, 1747.002 1655.534, 1748.066 1654.965 C 1749.399 1654.251, 1750 1654.251, 1750 1654.965 C 1750 1655.534, 1751.125 1656, 1752.500 1656 C 1754.983 1656, 1755 1655.940, 1755 1646.901 C 1755 1636.126, 1753.420 1631.902, 1748.522 1629.577 C 1745.288 1628.043, 1742.788 1627.827, 1738.327 1628.696 M 1856.327 1628.696 C 1852.850 1629.373, 1848.858 1633.989, 1849.201 1636.935 C 1849.655 1640.828, 1853.145 1640.381, 1854.203 1636.295 C 1855.032 1633.097, 1858.262 1630, 1860.768 1630 C 1862.763 1630, 1867 1634.645, 1867 1636.833 C 1867 1638.883, 1864.650 1640.109, 1857 1642.046 C 1851.314 1643.486, 1849 1645.543, 1849 1649.155 C 1849 1653.780, 1852.102 1656, 1858.566 1656 C 1861.627 1656, 1865.002 1655.534, 1866.066 1654.965 C 1867.399 1654.251, 1868 1654.251, 1868 1654.965 C 1868 1655.534, 1869.125 1656, 1870.500 1656 C 1872.983 1656, 1873 1655.940, 1873 1646.901 C 1873 1636.126, 1871.420 1631.902, 1866.522 1629.577 C 1863.288 1628.043, 1860.788 1627.827, 1856.327 1628.696 M 1983 1641.934 L 1983 1656 1986.028 1656 L 1989.056 1656 1988.778 1642.250 L 1988.500 1628.500 1985.750 1628.184 L 1983 1627.867 1983 1641.934 M 2037.500 1628.954 C 2032.732 1630.926, 2030.578 1634.768, 2030.168 1642.037 C 2029.783 1648.850, 2029.839 1649.039, 2033.288 1652.488 C 2036.297 1655.497, 2037.466 1656, 2041.450 1656 C 2048.954 1656, 2054 1652.408, 2054 1647.066 C 2054 1643.668, 2049.216 1644.251, 2048.385 1647.750 C 2046.535 1655.535, 2038.678 1656.253, 2036.105 1648.872 C 2032.741 1639.222, 2038.081 1627.893, 2044.594 1630.861 C 2045.976 1631.490, 2047.576 1633.354, 2048.151 1635.003 C 2048.920 1637.211, 2049.828 1638, 2051.598 1638 C 2053.111 1638, 2054 1637.421, 2054 1636.434 C 2054 1630.446, 2044.407 1626.097, 2037.500 1628.954 M 2071.327 1628.696 C 2067.850 1629.373, 2063.858 1633.989, 2064.201 1636.935 C 2064.655 1640.828, 2068.145 1640.381, 2069.203 1636.295 C 2070.032 1633.097, 2073.262 1630, 2075.768 1630 C 2077.763 1630, 2082 1634.645, 2082 1636.833 C 2082 1638.883, 2079.650 1640.109, 2072 1642.046 C 2066.314 1643.486, 2064 1645.543, 2064 1649.155 C 2064 1653.780, 2067.102 1656, 2073.566 1656 C 2076.627 1656, 2080.002 1655.534, 2081.066 1654.965 C 2082.399 1654.251, 2083 1654.251, 2083 1654.965 C 2083 1655.534, 2084.125 1656, 2085.500 1656 C 2087.983 1656, 2088 1655.940, 2088 1646.901 C 2088 1636.126, 2086.420 1631.902, 2081.522 1629.577 C 2078.288 1628.043, 2075.788 1627.827, 2071.327 1628.696 M 2132.500 1629.403 C 2127.163 1631.758, 2125.596 1634.464, 2125.166 1642.061 C 2124.783 1648.846, 2124.841 1649.041, 2128.288 1652.488 C 2131.297 1655.497, 2132.466 1656, 2136.450 1656 C 2143.954 1656, 2149 1652.408, 2149 1647.066 C 2149 1643.668, 2144.216 1644.251, 2143.385 1647.750 C 2141.614 1655.204, 2134.765 1656.314, 2131.346 1649.701 C 2129.882 1646.872, 2129.895 1646.550, 2131.514 1645.366 C 2132.476 1644.663, 2135.791 1643.576, 2138.882 1642.952 C 2141.972 1642.328, 2145.512 1641.173, 2146.750 1640.385 C 2150.884 1637.755, 2149.085 1631.769, 2143.452 1629.415 C 2139.295 1627.679, 2136.413 1627.675, 2132.500 1629.403 M 2187.327 1628.696 C 2183.850 1629.373, 2179.858 1633.989, 2180.201 1636.935 C 2180.655 1640.828, 2184.145 1640.381, 2185.203 1636.295 C 2186.032 1633.097, 2189.262 1630, 2191.768 1630 C 2193.763 1630, 2198 1634.645, 2198 1636.833 C 2198 1638.883, 2195.650 1640.109, 2188 1642.046 C 2182.314 1643.486, 2180 1645.543, 2180 1649.155 C 2180 1653.780, 2183.102 1656, 2189.566 1656 C 2192.627 1656, 2196.002 1655.534, 2197.066 1654.965 C 2198.399 1654.251, 2199 1654.251, 2199 1654.965 C 2199 1655.534, 2200.125 1656, 2201.500 1656 C 2203.983 1656, 2204 1655.940, 2204 1646.901 C 2204 1636.126, 2202.420 1631.902, 2197.522 1629.577 C 2194.288 1628.043, 2191.788 1627.827, 2187.327 1628.696 M 2456.212 1629.098 C 2451.378 1630.537, 2449.008 1635.059, 2449.004 1642.850 C 2449 1648.740, 2449.246 1649.446, 2452.400 1652.600 C 2455.468 1655.668, 2456.354 1656, 2461.477 1656 C 2466.379 1656, 2467.541 1655.613, 2469.991 1653.163 C 2475.373 1647.781, 2474.806 1635.042, 2469 1630.891 C 2465.801 1628.604, 2460.407 1627.848, 2456.212 1629.098 M 2519 1629.484 C 2519 1630.300, 2521.237 1636.575, 2523.972 1643.429 C 2528.704 1655.290, 2528.876 1656.051, 2527.554 1659.216 C 2526.790 1661.044, 2525.280 1663.342, 2524.198 1664.321 C 2522.290 1666.048, 2522.199 1666.010, 2521.167 1663.051 C 2519.829 1659.210, 2516 1658.687, 2516 1662.345 C 2516 1667.967, 2524.211 1670.089, 2527.886 1665.418 C 2530.278 1662.377, 2543.508 1629.175, 2542.664 1628.331 C 2541.125 1626.791, 2539.200 1629.555, 2536.010 1637.886 C 2534.091 1642.899, 2532.254 1647, 2531.929 1647 C 2531.604 1647, 2529.646 1642.725, 2527.578 1637.500 C 2524.281 1629.170, 2523.521 1628, 2521.409 1628 C 2519.946 1628, 2519 1628.583, 2519 1629.484 M 2624.327 1628.696 C 2620.850 1629.373, 2616.858 1633.989, 2617.201 1636.935 C 2617.655 1640.828, 2621.145 1640.381, 2622.203 1636.295 C 2623.032 1633.097, 2626.262 1630, 2628.768 1630 C 2630.763 1630, 2635 1634.645, 2635 1636.833 C 2635 1638.883, 2632.650 1640.109, 2625 1642.046 C 2619.314 1643.486, 2617 1645.543, 2617 1649.155 C 2617 1653.780, 2620.102 1656, 2626.566 1656 C 2629.627 1656, 2633.002 1655.534, 2634.066 1654.965 C 2635.399 1654.251, 2636 1654.251, 2636 1654.965 C 2636 1655.534, 2637.125 1656, 2638.500 1656 C 2640.983 1656, 2641 1655.940, 2641 1646.901 C 2641 1636.126, 2639.420 1631.902, 2634.522 1629.577 C 2631.288 1628.043, 2628.788 1627.827, 2624.327 1628.696 M 2684 1641.934 L 2684 1656 2687.028 1656 L 2690.056 1656 2689.778 1642.250 L 2689.500 1628.500 2686.750 1628.184 L 2684 1627.867 2684 1641.934 M 2737.329 1629.494 C 2735.585 1630.233, 2733.672 1631.744, 2733.079 1632.853 C 2731.709 1635.412, 2731.686 1641.544, 2733.035 1644.066 C 2733.754 1645.409, 2733.743 1646.612, 2733 1648 C 2732.256 1649.391, 2732.246 1650.590, 2732.968 1651.939 C 2733.658 1653.229, 2733.670 1654.086, 2733.003 1654.498 C 2732.451 1654.839, 2732 1656.813, 2732 1658.885 C 2732 1664.276, 2735.400 1667.203, 2742.329 1667.777 C 2748.209 1668.265, 2753.175 1666.410, 2754.970 1663.055 C 2758.041 1657.318, 2753.596 1651, 2746.489 1651 C 2741.004 1651, 2736 1649.986, 2736 1648.875 C 2736 1648.394, 2739.170 1648, 2743.045 1648 C 2749.192 1648, 2750.404 1647.687, 2752.545 1645.545 C 2755.214 1642.877, 2755.921 1636.590, 2753.965 1632.934 C 2752.575 1630.338, 2753.756 1630.477, 2755.934 1633.167 C 2757.044 1634.538, 2758.297 1635.100, 2759.344 1634.698 C 2761.426 1633.899, 2761.476 1631.640, 2759.449 1629.957 C 2757.232 1628.118, 2741.361 1627.785, 2737.329 1629.494 M 1537 1642.500 L 1537 1656 1539.500 1656 C 1541.997 1656, 1542 1655.990, 1542 1646.155 C 1542 1635.712, 1542.333 1634.894, 1547.727 1632.106 C 1549.584 1631.146, 1550.290 1631.290, 1551.977 1632.977 C 1553.751 1634.751, 1554 1636.294, 1554 1645.500 L 1554 1656 1557.111 1656 L 1560.221 1656 1559.847 1645.066 C 1559.508 1635.161, 1559.246 1633.891, 1557.062 1631.566 C 1554.219 1628.539, 1547.821 1628.036, 1544.223 1630.557 C 1542.211 1631.966, 1542 1631.966, 1542 1630.557 C 1542 1629.563, 1541.096 1629, 1539.500 1629 L 1537 1629 1537 1642.500 M 1645 1642.500 L 1645 1656 1647.500 1656 C 1649.997 1656, 1650 1655.990, 1650 1646.155 C 1650 1635.712, 1650.333 1634.894, 1655.727 1632.106 C 1657.584 1631.146, 1658.290 1631.290, 1659.977 1632.977 C 1661.751 1634.751, 1662 1636.294, 1662 1645.500 L 1662 1656 1665.111 1656 L 1668.221 1656 1667.847 1645.066 C 1667.508 1635.161, 1667.246 1633.891, 1665.062 1631.566 C 1662.219 1628.539, 1655.821 1628.036, 1652.223 1630.557 C 1650.211 1631.966, 1650 1631.966, 1650 1630.557 C 1650 1629.563, 1649.096 1629, 1647.500 1629 L 1645 1629 1645 1642.500 M 1699 1642.500 L 1699 1656 1701.500 1656 C 1703.997 1656, 1704 1655.990, 1704 1646.155 C 1704 1635.712, 1704.333 1634.894, 1709.727 1632.106 C 1711.584 1631.146, 1712.290 1631.290, 1713.977 1632.977 C 1715.751 1634.751, 1716 1636.294, 1716 1645.500 L 1716 1656 1719.111 1656 L 1722.221 1656 1721.847 1645.066 C 1721.508 1635.161, 1721.246 1633.891, 1719.062 1631.566 C 1716.219 1628.539, 1709.821 1628.036, 1706.223 1630.557 C 1704.211 1631.966, 1704 1631.966, 1704 1630.557 C 1704 1629.563, 1703.096 1629, 1701.500 1629 L 1699 1629 1699 1642.500 M 1792 1639.865 C 1792 1649.343, 1792.265 1651.067, 1794.073 1653.365 C 1795.693 1655.426, 1797.016 1656, 1800.138 1656 C 1802.335 1656, 1805.093 1655.485, 1806.268 1654.857 C 1807.871 1653.999, 1808.500 1653.999, 1808.786 1654.857 C 1808.995 1655.485, 1810.479 1656, 1812.083 1656 L 1815 1656 1815 1642.500 L 1815 1629 1812 1629 L 1809 1629 1809 1638.826 C 1809 1647.803, 1808.800 1648.839, 1806.686 1650.826 C 1803.717 1653.615, 1800.531 1653.596, 1798.557 1650.777 C 1797.405 1649.134, 1797 1646.008, 1797 1638.777 C 1797 1629.015, 1796.996 1629, 1794.500 1629 L 1792 1629 1792 1639.865 M 1924.223 1630.557 C 1921.437 1632.508, 1921.201 1637.967, 1923.800 1640.319 C 1924.789 1641.214, 1927.580 1642.646, 1930 1643.500 C 1937.403 1646.112, 1939.639 1649.218, 1936.429 1652.429 C 1932.637 1656.220, 1926 1652.942, 1926 1647.277 C 1926 1645.515, 1925.435 1645, 1923.500 1645 C 1921.523 1645, 1921 1645.505, 1921 1647.418 C 1921 1653.237, 1924.848 1656, 1932.950 1656 C 1938.971 1656, 1942 1653.635, 1942 1648.934 C 1942 1644.115, 1940.434 1642.306, 1934.266 1639.998 C 1925.064 1636.556, 1923.667 1634.258, 1929.076 1631.461 C 1931.887 1630.007, 1932.362 1630.007, 1934.576 1631.458 C 1936.061 1632.431, 1937 1634.005, 1937 1635.523 C 1937 1637.498, 1937.506 1638, 1939.500 1638 C 1942.996 1638, 1942.915 1633.865, 1939.365 1631.073 C 1936.104 1628.507, 1927.564 1628.216, 1924.223 1630.557 M 1998 1642.500 L 1998 1656 2000.500 1656 C 2002.997 1656, 2003 1655.990, 2003 1646.155 C 2003 1635.712, 2003.333 1634.894, 2008.727 1632.106 C 2010.584 1631.146, 2011.290 1631.290, 2012.977 1632.977 C 2014.751 1634.751, 2015 1636.294, 2015 1645.500 L 2015 1656 2018.111 1656 L 2021.221 1656 2020.847 1645.066 C 2020.508 1635.161, 2020.246 1633.891, 2018.062 1631.566 C 2015.219 1628.539, 2008.821 1628.036, 2005.223 1630.557 C 2003.211 1631.966, 2003 1631.966, 2003 1630.557 C 2003 1629.563, 2002.096 1629, 2000.500 1629 L 1998 1629 1998 1642.500 M 2216 1642.500 L 2216 1656 2218.500 1656 C 2220.997 1656, 2221 1655.990, 2221 1646.155 C 2221 1635.712, 2221.333 1634.894, 2226.727 1632.106 C 2228.584 1631.146, 2229.290 1631.290, 2230.977 1632.977 C 2232.751 1634.751, 2233 1636.294, 2233 1645.500 L 2233 1656 2236.111 1656 L 2239.221 1656 2238.847 1645.066 C 2238.508 1635.161, 2238.246 1633.891, 2236.062 1631.566 C 2233.219 1628.539, 2226.821 1628.036, 2223.223 1630.557 C 2221.211 1631.966, 2221 1631.966, 2221 1630.557 C 2221 1629.563, 2220.096 1629, 2218.500 1629 L 2216 1629 2216 1642.500 M 2332 1639.865 C 2332 1649.343, 2332.265 1651.067, 2334.073 1653.365 C 2335.693 1655.426, 2337.016 1656, 2340.138 1656 C 2342.335 1656, 2345.093 1655.485, 2346.268 1654.857 C 2347.871 1653.999, 2348.500 1653.999, 2348.786 1654.857 C 2348.995 1655.485, 2350.479 1656, 2352.083 1656 L 2355 1656 2355 1642.500 L 2355 1629 2352 1629 L 2349 1629 2349 1638.826 C 2349 1647.803, 2348.800 1648.839, 2346.686 1650.826 C 2343.717 1653.615, 2340.531 1653.596, 2338.557 1650.777 C 2337.405 1649.134, 2337 1646.008, 2337 1638.777 C 2337 1629.015, 2336.996 1629, 2334.500 1629 L 2332 1629 2332 1639.865 M 2573.996 1629.750 C 2573.994 1630.162, 2576.293 1636.237, 2579.105 1643.250 C 2584.787 1657.422, 2586.584 1659.014, 2589.279 1652.258 L 2590.771 1648.516 2592.334 1652.258 C 2594.940 1658.494, 2596.995 1657.291, 2600.900 1647.246 C 2608.761 1627.021, 2608.191 1629, 2606.154 1629 C 2604.788 1629, 2603.390 1631.393, 2600.518 1638.651 L 2596.698 1648.301 2595.226 1644.610 C 2593.869 1641.209, 2593.921 1640.482, 2595.877 1635.370 C 2598.416 1628.735, 2598.394 1629, 2596.413 1629 C 2595.540 1629, 2594.317 1630.350, 2593.694 1632 C 2593.071 1633.650, 2592.254 1635, 2591.879 1635 C 2591.503 1635, 2590.725 1633.650, 2590.150 1632 C 2589.298 1629.558, 2588.541 1629, 2586.077 1629 C 2582.710 1629, 2582.633 1628.061, 2586.875 1638.728 C 2588.753 1643.453, 2588.864 1647, 2587.133 1647 C 2586.773 1647, 2584.914 1642.950, 2583 1638 C 2579.784 1629.681, 2579.312 1629, 2576.760 1629 C 2575.242 1629, 2573.998 1629.338, 2573.996 1629.750 M 2654 1629.582 C 2654 1629.902, 2655.575 1632.851, 2657.500 1636.135 C 2659.425 1639.420, 2661 1642.286, 2661 1642.503 C 2661 1642.721, 2659.426 1645.510, 2657.503 1648.700 C 2653.576 1655.211, 2653.361 1656, 2655.509 1656 C 2656.339 1656, 2658.436 1653.697, 2660.168 1650.881 L 2663.318 1645.763 2666.400 1650.881 C 2668.915 1655.058, 2669.990 1656, 2672.241 1656 C 2673.758 1656, 2675 1655.719, 2675 1655.377 C 2675 1655.034, 2673.015 1651.484, 2670.589 1647.488 C 2668.163 1643.492, 2666.528 1639.835, 2666.956 1639.361 C 2667.384 1638.887, 2668.962 1636.362, 2670.462 1633.750 C 2672.984 1629.359, 2673.046 1629, 2671.279 1629 C 2670.091 1629, 2668.518 1630.513, 2667.120 1633 C 2665.884 1635.200, 2664.705 1637, 2664.500 1637 C 2664.295 1637, 2663.116 1635.200, 2661.880 1633 C 2660.088 1629.813, 2659.060 1629, 2656.816 1629 C 2655.267 1629, 2654 1629.262, 2654 1629.582 M 2700 1642.500 L 2700 1656 2702.500 1656 C 2704.997 1656, 2705 1655.990, 2705 1646.155 C 2705 1635.712, 2705.333 1634.894, 2710.727 1632.106 C 2712.584 1631.146, 2713.290 1631.290, 2714.977 1632.977 C 2716.751 1634.751, 2717 1636.294, 2717 1645.500 L 2717 1656 2720.111 1656 L 2723.221 1656 2722.847 1645.066 C 2722.508 1635.161, 2722.246 1633.891, 2720.062 1631.566 C 2717.219 1628.539, 2710.821 1628.036, 2707.223 1630.557 C 2705.211 1631.966, 2705 1631.966, 2705 1630.557 C 2705 1629.563, 2704.096 1629, 2702.500 1629 L 2700 1629 2700 1642.500 M 1317.455 1632.455 C 1315.282 1634.627, 1315 1635.777, 1315 1642.455 C 1315 1648.667, 1315.353 1650.353, 1317 1652 C 1319.495 1654.495, 1323.173 1654.571, 1325.343 1652.174 C 1329.257 1647.848, 1329.053 1635.080, 1325.016 1631.812 C 1322.023 1629.388, 1320.382 1629.528, 1317.455 1632.455 M 1352.251 1631.537 C 1350.253 1632.936, 1347.449 1640.094, 1348.191 1641.898 C 1348.361 1642.311, 1351.313 1641.811, 1354.750 1640.788 C 1360.557 1639.060, 1361 1638.722, 1361 1636.021 C 1361 1634.150, 1360.208 1632.558, 1358.777 1631.557 C 1356.001 1629.612, 1355.003 1629.609, 1352.251 1631.537 M 1576.861 1631.912 C 1573.926 1634.288, 1573.504 1641.932, 1576.161 1644.589 C 1578.592 1647.021, 1583.030 1646.681, 1585.290 1643.890 C 1587.786 1640.808, 1587.066 1634.282, 1583.952 1631.760 C 1581.178 1629.514, 1579.785 1629.544, 1576.861 1631.912 M 2134.251 1631.537 C 2132.253 1632.936, 2129.449 1640.094, 2130.191 1641.898 C 2130.361 1642.311, 2133.313 1641.811, 2136.750 1640.788 C 2142.557 1639.060, 2143 1638.722, 2143 1636.021 C 2143 1634.150, 2142.208 1632.558, 2140.777 1631.557 C 2138.001 1629.612, 2137.003 1629.609, 2134.251 1631.537 M 2256.535 1632.374 C 2253.534 1635.375, 2252.304 1642.732, 2253.907 1648.083 C 2255.689 1654.033, 2260.959 1655.913, 2264.595 1651.895 C 2266.133 1650.195, 2266.500 1648.254, 2266.500 1641.807 C 2266.500 1634.623, 2266.263 1633.632, 2264.139 1631.912 C 2261.039 1629.401, 2259.409 1629.500, 2256.535 1632.374 M 2422.455 1632.455 C 2420.322 1634.587, 2420 1635.816, 2420 1641.820 C 2420 1650.039, 2422.422 1654.328, 2426.767 1653.805 C 2434.182 1652.912, 2435.873 1636.493, 2429.087 1631.282 C 2426.718 1629.463, 2425.173 1629.736, 2422.455 1632.455 M 2458.251 1631.537 C 2453.631 1634.772, 2452.904 1647.373, 2457.078 1651.854 C 2460.075 1655.070, 2463.646 1654.629, 2466.011 1650.750 C 2469.668 1644.752, 2468.009 1633.681, 2463.055 1631.030 C 2460.637 1629.736, 2460.855 1629.712, 2458.251 1631.537 M 2491.535 1632.374 C 2488.534 1635.375, 2487.304 1642.732, 2488.907 1648.083 C 2490.689 1654.033, 2495.959 1655.913, 2499.595 1651.895 C 2501.133 1650.195, 2501.500 1648.254, 2501.500 1641.807 C 2501.500 1634.623, 2501.263 1633.632, 2499.139 1631.912 C 2496.039 1629.401, 2494.409 1629.500, 2491.535 1632.374 M 2739.861 1631.912 C 2736.926 1634.288, 2736.504 1641.932, 2739.161 1644.589 C 2741.592 1647.021, 2746.030 1646.681, 2748.290 1643.890 C 2750.786 1640.808, 2750.066 1634.282, 2746.952 1631.760 C 2744.178 1629.514, 2742.785 1629.544, 2739.861 1631.912 M 1276.587 1637.926 C 1272.222 1640.496, 1271.942 1640.856, 1274.074 1641.159 C 1276.006 1641.434, 1276.597 1642.268, 1277.111 1645.443 C 1278.381 1653.301, 1286.020 1656.379, 1291.923 1651.411 C 1296.163 1647.844, 1296.100 1643.925, 1291.750 1640.669 C 1288.889 1638.527, 1282.626 1634.970, 1281.800 1635.017 C 1281.635 1635.026, 1279.289 1636.336, 1276.587 1637.926 M 1437.098 1643.865 C 1430.655 1645.856, 1429.103 1647.736, 1430.810 1651.482 C 1431.837 1653.736, 1432.543 1654.075, 1435.657 1653.810 C 1438.191 1653.594, 1439.834 1652.738, 1441.049 1651 C 1442.890 1648.367, 1444.463 1641.931, 1443.225 1642.098 C 1442.826 1642.152, 1440.069 1642.947, 1437.098 1643.865 M 1743.098 1643.865 C 1736.655 1645.856, 1735.103 1647.736, 1736.810 1651.482 C 1737.837 1653.736, 1738.543 1654.075, 1741.657 1653.810 C 1744.191 1653.594, 1745.834 1652.738, 1747.049 1651 C 1748.890 1648.367, 1750.463 1641.931, 1749.225 1642.098 C 1748.826 1642.152, 1746.069 1642.947, 1743.098 1643.865 M 1861.098 1643.865 C 1854.655 1645.856, 1853.103 1647.736, 1854.810 1651.482 C 1855.837 1653.736, 1856.543 1654.075, 1859.657 1653.810 C 1862.191 1653.594, 1863.834 1652.738, 1865.049 1651 C 1866.890 1648.367, 1868.463 1641.931, 1867.225 1642.098 C 1866.826 1642.152, 1864.069 1642.947, 1861.098 1643.865 M 2076.098 1643.865 C 2069.655 1645.856, 2068.103 1647.736, 2069.810 1651.482 C 2070.837 1653.736, 2071.543 1654.075, 2074.657 1653.810 C 2077.191 1653.594, 2078.834 1652.738, 2080.049 1651 C 2081.890 1648.367, 2083.463 1641.931, 2082.225 1642.098 C 2081.826 1642.152, 2079.069 1642.947, 2076.098 1643.865 M 2192.098 1643.865 C 2185.655 1645.856, 2184.103 1647.736, 2185.810 1651.482 C 2186.837 1653.736, 2187.543 1654.075, 2190.657 1653.810 C 2193.191 1653.594, 2194.834 1652.738, 2196.049 1651 C 2197.890 1648.367, 2199.463 1641.931, 2198.225 1642.098 C 2197.826 1642.152, 2195.069 1642.947, 2192.098 1643.865 M 2629.098 1643.865 C 2622.655 1645.856, 2621.103 1647.736, 2622.810 1651.482 C 2623.837 1653.736, 2624.543 1654.075, 2627.657 1653.810 C 2630.191 1653.594, 2631.834 1652.738, 2633.049 1651 C 2634.890 1648.367, 2636.463 1641.931, 2635.225 1642.098 C 2634.826 1642.152, 2632.069 1642.947, 2629.098 1643.865 M 1574.568 1657.585 C 1573.626 1661.338, 1574.673 1663.622, 1577.960 1664.983 C 1581.505 1666.452, 1584.568 1665.590, 1586.549 1662.565 C 1589.333 1658.317, 1585.823 1655, 1578.543 1655 C 1575.800 1655, 1575.103 1655.453, 1574.568 1657.585 M 2737.568 1657.585 C 2736.626 1661.338, 2737.673 1663.622, 2740.960 1664.983 C 2744.505 1666.452, 2747.568 1665.590, 2749.549 1662.565 C 2752.333 1658.317, 2748.823 1655, 2741.543 1655 C 2738.800 1655, 2738.103 1655.453, 2737.568 1657.585" stroke="none" fill="#070606" fill-rule="evenodd"/><path d="M 1219.500 926.375 C 1189.923 936.032, 1163.002 970.701, 1158.892 1004.429 C 1157.802 1013.373, 1158.271 1026.181, 1160.065 1036.435 C 1162.991 1053.163, 1164.951 1067.689, 1165.398 1075.961 C 1165.849 1084.324, 1166.175 1085.628, 1168.204 1087.189 C 1171.119 1089.432, 1172.396 1089.475, 1171.563 1087.302 C 1169.760 1082.605, 1167.011 1061.272, 1167.014 1052 C 1167.022 1020.327, 1176.617 983.355, 1190.329 962.159 C 1195.971 953.437, 1203.571 945.870, 1209.641 942.932 C 1216.346 939.686, 1225.805 939.679, 1232 942.915 C 1245.219 949.821, 1258.689 963.404, 1271.255 982.500 C 1274.512 987.450, 1277.332 991.657, 1277.521 991.849 C 1277.711 992.042, 1279.056 989.850, 1280.511 986.979 C 1283.738 980.610, 1283.663 980.244, 1275.932 964.700 C 1257.930 928.506, 1243.334 918.593, 1219.500 926.375 M 1215.994 947.903 C 1208.324 950.332, 1202.964 955.304, 1195.581 966.839 C 1187.289 979.795, 1181.850 995.504, 1176.829 1021 C 1173.307 1038.879, 1173.633 1060.632, 1177.715 1080.266 L 1180.785 1095.032 1190.237 1104.879 C 1198.254 1113.231, 1200.575 1116.457, 1205.523 1126.114 C 1208.732 1132.376, 1212.326 1140.544, 1213.510 1144.265 C 1215.606 1150.852, 1215.709 1150.978, 1217.433 1149.074 C 1218.860 1147.498, 1219.071 1146.154, 1218.522 1142.163 C 1217.374 1133.810, 1222.251 1127.923, 1227.841 1130.915 C 1228.956 1131.512, 1230.114 1132, 1230.414 1132 C 1231.395 1132, 1235 1124.131, 1235 1121.990 C 1235 1118.533, 1237.875 1114.070, 1240.531 1113.403 C 1243.757 1112.593, 1245.700 1114.266, 1247.148 1119.099 C 1248.190 1122.578, 1248.563 1122.899, 1250.903 1122.329 C 1252.331 1121.981, 1254.772 1120.639, 1256.327 1119.348 C 1257.881 1118.057, 1260.174 1117, 1261.422 1117 C 1264.294 1117, 1266.995 1119.935, 1267.015 1123.079 C 1267.041 1127.136, 1268.280 1128.041, 1273.568 1127.871 C 1277.843 1127.733, 1278.876 1127.265, 1281.323 1124.356 C 1284.667 1120.380, 1288.176 1119.981, 1291.050 1123.250 C 1292.138 1124.487, 1294.590 1127.196, 1296.500 1129.269 C 1300.904 1134.050, 1301.598 1136.904, 1299.734 1142.567 C 1298.430 1146.527, 1298.425 1147.282, 1299.692 1148.549 C 1300.490 1149.347, 1301.521 1150, 1301.982 1150 C 1303.420 1150, 1307 1158.466, 1307 1161.865 C 1307 1163.644, 1306.270 1166.512, 1305.377 1168.238 C 1304.126 1170.657, 1304.011 1171.789, 1304.877 1173.175 C 1305.495 1174.164, 1306 1176.492, 1306 1178.350 L 1306 1181.726 1312.250 1182.263 C 1315.688 1182.558, 1322.312 1184.020, 1326.970 1185.513 C 1335.268 1188.171, 1335.546 1188.193, 1340.591 1186.603 C 1347.238 1184.508, 1373.803 1171.827, 1380.440 1167.582 C 1388.274 1162.570, 1409.044 1144.813, 1416.859 1136.444 C 1424.387 1128.383, 1430.960 1118.999, 1435.745 1109.481 C 1440.597 1099.828, 1446 1084.400, 1446 1080.194 C 1446 1072.642, 1437.869 1064.538, 1424.310 1058.577 C 1412.394 1053.337, 1403.942 1052.145, 1393.685 1054.255 C 1382.068 1056.646, 1371.836 1062.070, 1346.220 1079.414 C 1321.477 1096.168, 1314.377 1100.544, 1308.545 1102.637 C 1302.115 1104.944, 1301.834 1104.473, 1302.187 1092.005 C 1302.359 1085.950, 1302.195 1080.997, 1301.823 1080.998 C 1299.880 1081.004, 1297.063 1086.689, 1296.468 1091.802 C 1294.575 1108.079, 1288.256 1120, 1281.520 1120 C 1273.221 1120, 1274.796 1105.134, 1284.606 1090.865 L 1289.168 1084.230 1288.548 1074.865 C 1287.955 1065.901, 1286.653 1054.307, 1283.580 1030.607 C 1282.322 1020.906, 1281.573 1018.498, 1276.740 1008.607 C 1267.227 989.134, 1255.309 972.134, 1243.647 961.398 C 1231.495 950.212, 1222.525 945.835, 1215.994 947.903 M 1283.018 992.962 L 1280.694 997.923 1284.819 1008.281 C 1289.769 1020.707, 1291.698 1028.639, 1293.500 1043.968 C 1295.716 1062.810, 1296.221 1066, 1296.988 1066 C 1298.125 1066, 1302 1053.348, 1302 1049.635 C 1302 1039.885, 1288.514 988, 1285.980 988 C 1285.629 988, 1284.296 990.233, 1283.018 992.962 M 1053.258 1088.473 C 1048.462 1091.958, 1046.647 1098.822, 1048.094 1108 C 1052.814 1137.948, 1071.083 1157.705, 1113 1178.193 C 1135.112 1189, 1140.320 1191.171, 1152.252 1194.558 L 1160.003 1196.758 1166.252 1193.803 C 1179.148 1187.703, 1196.140 1184.271, 1202.795 1186.422 C 1205.029 1187.144, 1205.073 1187.034, 1204.444 1182.291 C 1203.998 1178.928, 1204.266 1176.300, 1205.308 1173.804 L 1206.819 1170.189 1202.909 1167.047 C 1197.649 1162.820, 1197.597 1159.605, 1202.750 1157.263 C 1204.813 1156.326, 1206.653 1155.468, 1206.839 1155.357 C 1207.025 1155.246, 1205.291 1153.451, 1202.985 1151.368 C 1198.547 1147.358, 1196.313 1144.130, 1185.638 1126.305 C 1180.584 1117.866, 1177.097 1113.420, 1171.235 1107.945 C 1160.053 1097.501, 1160.286 1097.610, 1154.959 1100.272 C 1151.086 1102.207, 1148.989 1102.490, 1139 1102.420 C 1126.808 1102.336, 1122.880 1101.474, 1089 1091.454 C 1073.897 1086.987, 1057.216 1085.596, 1053.258 1088.473 M 1268.550 1134.919 C 1267.959 1135.875, 1273.807 1146, 1274.949 1146 C 1276.423 1146, 1278 1143.436, 1277.992 1141.050 C 1277.987 1139.133, 1277.007 1137.942, 1274.044 1136.250 C 1269.591 1133.707, 1269.337 1133.646, 1268.550 1134.919 M 1291.776 1138.957 C 1288.875 1142.993, 1289.032 1144, 1292.560 1144 C 1294.935 1144, 1296 1142.291, 1296 1138.477 C 1296 1134.741, 1294.701 1134.889, 1291.776 1138.957 M 1259.563 1143.473 C 1257.941 1147.721, 1257.945 1148.099, 1259.643 1150.973 C 1260.627 1152.638, 1261.802 1154, 1262.256 1154 C 1263.825 1154, 1269 1149.619, 1269 1148.291 C 1269 1146.278, 1263.910 1139, 1262.503 1139 C 1261.826 1139, 1260.503 1141.013, 1259.563 1143.473 M 1242.750 1154.117 C 1238.435 1159.398, 1237.849 1162.306, 1241.199 1161.820 C 1243.995 1161.413, 1247.238 1155.923, 1246.820 1152.302 L 1246.500 1149.528 1242.750 1154.117 M 1295.938 1158.250 C 1292.080 1163.143, 1291.906 1163.622, 1292.968 1166.416 C 1293.666 1168.253, 1294.680 1169, 1296.475 1169 C 1299.310 1169, 1303 1165.834, 1303 1163.401 C 1303 1161.465, 1300.027 1155, 1299.136 1155 C 1298.786 1155, 1297.347 1156.463, 1295.938 1158.250 M 1249.489 1160.382 C 1248.522 1162.420, 1246.441 1164.755, 1244.865 1165.570 C 1242.396 1166.847, 1240.929 1169, 1242.529 1169 C 1243.777 1169, 1254.998 1162.903, 1254.978 1162.236 C 1254.966 1161.831, 1254.121 1160.415, 1253.101 1159.088 L 1251.247 1156.676 1249.489 1160.382 M 1226.557 1163.223 C 1224.419 1166.275, 1224.505 1166.510, 1228.655 1168.959 C 1232.530 1171.245, 1233.951 1170.639, 1233.985 1166.684 C 1234.030 1161.363, 1229.378 1159.195, 1226.557 1163.223 M 1275.897 1177.950 C 1275.246 1180.123, 1273.428 1183.132, 1271.857 1184.637 C 1268.162 1188.177, 1268.120 1190.234, 1271.750 1189.816 C 1274.127 1189.543, 1274.455 1189.114, 1274.166 1186.654 C 1273.955 1184.860, 1274.553 1183.012, 1275.784 1181.654 C 1276.857 1180.469, 1278.522 1178.263, 1279.483 1176.750 C 1281.184 1174.072, 1281.176 1174, 1279.155 1174 C 1277.605 1174, 1276.781 1174.999, 1275.897 1177.950 M 1296.146 1177.182 C 1292.078 1187.979, 1291.791 1191.001, 1294.833 1190.999 C 1297.132 1190.998, 1302.215 1181.706, 1301.815 1178.237 C 1301.391 1174.552, 1297.416 1173.812, 1296.146 1177.182 M 1241.598 1185.604 C 1240.788 1187.715, 1243.859 1192.332, 1246.405 1192.833 C 1248.301 1193.205, 1253 1190.475, 1253 1189 C 1253 1187.601, 1248.854 1185.121, 1245.342 1184.418 C 1242.968 1183.944, 1242.134 1184.208, 1241.598 1185.604 M 1207.048 1193.373 C 1205.902 1196.388, 1201.288 1199.168, 1192.863 1201.920 C 1186.879 1203.874, 1185.748 1204.699, 1181.374 1210.294 C 1178.705 1213.707, 1169.500 1223.752, 1160.920 1232.616 C 1132.465 1262.008, 1114.962 1288.232, 1105.910 1315.033 C 1098.993 1335.514, 1103.266 1352.212, 1118.193 1363.025 C 1122.946 1366.468, 1124.799 1366.634, 1132.135 1364.275 C 1145.180 1360.080, 1188.790 1336.869, 1196.920 1329.793 C 1206.735 1321.251, 1218.787 1293.301, 1231.965 1248.513 C 1237.529 1229.604, 1239.078 1227.438, 1244.887 1230.442 C 1248.402 1232.259, 1248.306 1232.434, 1249.539 1222 C 1250.496 1213.900, 1250.399 1210.838, 1249.078 1207.544 L 1247.893 1204.588 1244.535 1208.252 C 1240.429 1212.734, 1237.220 1213.682, 1233.196 1211.601 C 1229.540 1209.711, 1226 1205.413, 1226 1202.865 C 1226 1201.560, 1225.275 1201, 1223.587 1201 C 1222.157 1201, 1218.739 1198.965, 1215.191 1196 C 1211.900 1193.250, 1208.924 1191, 1208.579 1191 C 1208.233 1191, 1207.544 1192.068, 1207.048 1193.373 M 1298.533 1194.947 C 1298.175 1195.526, 1296.644 1196, 1295.132 1196 C 1293.209 1196, 1290.895 1197.432, 1287.441 1200.759 C 1284.651 1203.447, 1280.648 1206.129, 1278.245 1206.921 C 1275.651 1207.776, 1272.997 1209.626, 1271.444 1211.663 C 1270.043 1213.499, 1267.641 1215.652, 1266.105 1216.445 L 1263.314 1217.889 1262.708 1233.417 L 1262.101 1248.946 1269.422 1264.223 C 1273.448 1272.625, 1278.860 1284, 1281.449 1289.500 C 1293.900 1315.955, 1309.529 1337.654, 1321.587 1345.226 C 1341.381 1357.658, 1382.322 1361.802, 1401.282 1353.293 C 1408.807 1349.916, 1410 1347.430, 1410 1335.131 C 1410 1312.140, 1401.718 1283.739, 1389.258 1264 C 1383.045 1254.159, 1381.494 1253, 1374.537 1253 C 1360.685 1253, 1339.123 1248.824, 1324.627 1243.334 C 1316.004 1240.068, 1309 1233.799, 1309 1229.346 C 1309 1226.003, 1311.876 1222.749, 1316.315 1221.067 C 1323.249 1218.439, 1340.773 1220.398, 1356.623 1225.572 C 1360.827 1226.944, 1364.538 1227.796, 1364.869 1227.464 C 1365.913 1226.420, 1344.832 1206.976, 1337.149 1201.896 L 1329.799 1197.036 1321.117 1197.652 C 1313.026 1198.227, 1307.215 1197.314, 1300.342 1194.388 C 1299.705 1194.116, 1298.890 1194.368, 1298.533 1194.947 M 1253.731 1199.633 L 1250.999 1201.064 1253.508 1206.015 C 1256.224 1211.375, 1259.260 1213.002, 1262.907 1211.050 C 1265.694 1209.558, 1265.514 1208.872, 1261.711 1206.482 C 1259.939 1205.368, 1258.044 1203.062, 1257.482 1201.333 C 1256.494 1198.293, 1256.383 1198.243, 1253.731 1199.633 M 1230 1202.909 C 1230 1205.273, 1233.571 1208, 1236.666 1208 C 1238.988 1208, 1242.524 1204.070, 1241.241 1202.915 C 1240.833 1202.548, 1238.138 1201.952, 1235.250 1201.590 C 1230.464 1200.989, 1230 1201.106, 1230 1202.909 M 1254.555 1218.911 C 1253.120 1221.233, 1252.717 1233.902, 1253.980 1236.952 C 1255.736 1241.192, 1256.763 1240.762, 1257.559 1235.456 C 1258.862 1226.764, 1256.782 1215.307, 1254.555 1218.911 M 1324 1231.301 C 1327.557 1234.895, 1363.003 1243.422, 1364.476 1241.038 C 1365.806 1238.887, 1341.973 1231.684, 1329.500 1230.468 C 1323.250 1229.859, 1322.661 1229.948, 1324 1231.301 M 1405.481 1268.500 C 1413.788 1287.957, 1418.498 1306.847, 1419.569 1325 C 1420.281 1337.067, 1418.938 1350.155, 1416.711 1352.860 C 1415.015 1354.919, 1401.724 1360.845, 1394.520 1362.755 C 1386.591 1364.856, 1362.630 1364.753, 1351.500 1362.570 C 1347.100 1361.707, 1342.825 1361.001, 1342 1361.003 C 1338.915 1361.008, 1361.584 1373.455, 1369.132 1375.901 C 1372.049 1376.846, 1374.118 1376.776, 1379.632 1375.546 C 1388.751 1373.514, 1416.708 1369, 1420.181 1369 C 1426.900 1369, 1435.330 1356.032, 1436.913 1343.263 C 1438.620 1329.488, 1435.672 1315.974, 1427.409 1299.688 C 1422.473 1289.959, 1409.113 1269.313, 1405.852 1266.374 L 1403.773 1264.500 1405.481 1268.500 M 1177.500 1348.612 C 1168.603 1353.774, 1149.351 1363.331, 1142.500 1365.987 C 1133.242 1369.575, 1133.423 1370.264, 1143.500 1369.782 C 1151.114 1369.418, 1153.447 1368.868, 1158.648 1366.213 C 1165.591 1362.668, 1175.513 1355.412, 1181.928 1349.186 C 1187.139 1344.129, 1185.576 1343.926, 1177.500 1348.612 M 859.332 1462.901 C 854.357 1464.178, 847.318 1468.716, 844.419 1472.517 C 840.951 1477.064, 839.826 1487.560, 842.389 1491.470 C 843.830 1493.671, 844.764 1494, 849.565 1494 C 852.601 1494, 858.328 1494.666, 862.292 1495.480 C 866.256 1496.294, 876.025 1498.064, 884 1499.414 C 897.873 1501.761, 927.109 1509.524, 954.174 1518.047 C 963.122 1520.864, 972.884 1525.113, 987.374 1532.496 C 1009.463 1543.750, 1027 1551.480, 1027 1549.962 C 1027 1549.444, 1024.412 1547.372, 1021.250 1545.358 C 1018.087 1543.343, 1012.368 1539.626, 1008.539 1537.098 C 1001.769 1532.626, 984.127 1515.617, 959.500 1489.817 C 949.944 1479.806, 946.310 1476.696, 941.657 1474.549 C 935.844 1471.867, 935.729 1471.857, 920.157 1472.546 L 904.500 1473.240 889.434 1468.124 C 874.132 1462.927, 865.240 1461.385, 859.332 1462.901 M 844.298 1503.420 C 842.342 1505.103, 841.775 1506.511, 841.831 1509.552 C 841.931 1514.981, 845.504 1525.369, 849.602 1532.144 C 854.453 1540.164, 869.064 1553.735, 877.777 1558.314 L 884.906 1562.060 892.703 1559.576 C 906.332 1555.235, 917.096 1552.865, 932 1550.925 C 970.155 1545.959, 1003.688 1551.158, 1008.084 1562.722 L 1008.997 1565.122 1013.748 1561.181 C 1016.362 1559.013, 1019.561 1556.694, 1020.857 1556.027 C 1022.332 1555.269, 1022.862 1554.462, 1022.273 1553.873 C 1021.755 1553.355, 1013.944 1550.286, 1004.916 1547.052 C 995.887 1543.818, 982.425 1538.736, 975 1535.757 C 960.876 1530.091, 950.665 1526.875, 917.500 1517.652 C 884.996 1508.612, 875.129 1506.183, 860.604 1503.643 L 846.838 1501.235 844.298 1503.420 M 935.500 1557.440 C 928.350 1558.697, 920.475 1560.272, 918 1560.939 C 906.491 1564.042, 897.068 1567.301, 897.515 1568.024 C 898.605 1569.788, 924.744 1575.168, 938.718 1576.505 C 952.529 1577.826, 954.550 1577.786, 969.500 1575.902 C 987.799 1573.595, 991.440 1572.775, 998.807 1569.303 C 1003.030 1567.312, 1004.051 1566.373, 1003.807 1564.701 C 1002.551 1556.101, 965.510 1552.164, 935.500 1557.440" stroke="none" fill="#e9b9b1" fill-rule="evenodd"/></svg>